<svg width="100%" height="100%"  viewBox="0 0 100 100" xmlns="http://www.w3.org/2000/svg" fill-rule="evenodd" clip-rule="evenodd" stroke-linejoin="round" stroke-miterlimit="2">
  <path d="M12 79.2h76.6V81H12z"/>
  <path d="M88.2 36.6L74 29.3l-6-.3c.2 0 .3.2.4.3l1 1 4.7.1 13.2 9 .2.1c.4 0 .7-.2.8-.6l.4-1c.2-.5-.1-1-.6-1.3zM42 55.7H22l-3 24h26l-3-24z" fill-rule="nonzero"/>
  <path d="M87.1 39.8L74 31l-15.5-.5c.1-.3.4-.5.7-.5l8 .3h1a9.3 9.3 0 0 0-10.7-1.5c-1.6.9-2 3.1-.6 4.4L69 44.8c1.3-1 2.7.3 2.7.3s-1-.5-2.4.6l-12 12A2 2 0 0 0 57 59v.2l1 19.1c0 .5.5.9 1 .9h2c.6 0 1-.4 1-.9L63 61c-.2-1-1-1.8-1-1.8s1.3 0 1.8 1l15.4-9.9a5.3 5.3 0 0 0 1.3-7.9l-.1-.1-.6-.6-4.5-4.5-3.2-1.8-10.5-.6c-.7 0-1.3-.3-1.9-.8l12.5.7 13.7 7.9a1 1 0 0 0 1.3-.5l.5-1a1 1 0 0 0-.5-1.3zM52.4 28.8c4.7 0 7.4-5.3 4.6-9-3-4.2-9.5-2.5-10.2 2.5-.5 3 2.2 6.5 5.6 6.5z" fill-rule="nonzero"/>
</svg>
