<svg width="100%" height="100%" viewBox="0 0 100 100" xmlns="http://www.w3.org/2000/svg" fill-rule="evenodd" clip-rule="evenodd" stroke-linejoin="round" stroke-miterlimit="2">
  <path d="M19.5 41c.3-.6.8-1.1 1.4-1.6l.7-.4-1.9 8.4c-.3 1.6 0 3.4.9 4.7a6.4 6.4 0 0 0 3.8 2.5l-4.3 19.7L28 72l3.3-16.3 4.2.7 2 8.2.5-.6a7 7 0 0 1 3.2-2.1l3-1-1.7-6.9a5.8 5.8 0 0 0-5-4.6l-4.5-.9 1.7-7.8.5.7c1.2 1.7 3 2.9 5 3.1l6.5.8a5 5 0 0 0 1.9-.3c.8-.5 1.4-1.3 1.6-2.3a3 3 0 0 0-2.7-3.6l-6.3-.8-.9-.5c-5.3-7.7-6.4-8.1-8-8.2l-5.2-.3c-1 0-2 0-9.6 4.6-1.6 1-3 2.3-3.8 4l-3 6.6c-1 1.5-.3 3.4 1.3 4.2 1.5.8 3.3.2 4.2-1.3l3.3-6.4z" fill-rule="nonzero"/>
  <circle cx="26.9" cy="15.2" r="8.2" transform="scale(.84235) rotate(-84.4 37.2 14.8)"/>
  <path d="M90.1 84l-6.4-19.7-.3-.8-11.5-17c-.1-.4-.4-.5-.8-.9V15c.2-1.1-.7-2-1.7-2s-1.8.9-1.8 1.9v1H56.2 56c-1 0-1.7.7-1.7 1.7V27c0 1 .8 1.7 1.7 1.7h11.6v16.8l-.6.7-10.3 14.2c-.4.5-1 .9-1.7 1.1l-12.7 4a3 3 0 0 0-1.5 1l-5.4 6.7a3 3 0 0 1-1.5 1L20.1 78c-.8.3-1.5.9-1.9 1.6l-1.9 4A3 3 0 0 0 19 88H87c2.1-.1 3.6-2.1 3-4z" fill-rule="nonzero"/>
</svg>
