<svg width="100%" height="100%"  viewBox="0 0 100 100" xmlns="http://www.w3.org/2000/svg" fill-rule="evenodd" clip-rule="evenodd" stroke-linejoin="round" stroke-miterlimit="2">
  <g fill-rule="nonzero">
    <path d="M29.2 31.6a8.6 8.6 0 1 0-16-4c1.2.1 2.3.8 2.9 2a13 13 0 0 0 7.1 6.2 8.6 8.6 0 0 0 6-4.2zM31.6 36.5h.9c1.7 0 3.3 1.2 3.7 2.9a3.8 3.8 0 0 1-3 4.6c-.3 0-1.4.3-3.1.3.8 1 1.8 2 3.2 3 7 4.2 12 6 20.6 6.8 4.2 0 6.3-.8 7.4-2.4.7-.7 1.3-1.6 1.5-2.6 0-.3.8-3.9 2.3-7.3.7-1.8 1.6-3.4 2.5-4.5.4-.6.9-1 1.2-1.3l.7-.4.8.4c1 .5 2.2 1.6 3.4 3A53 53 0 0 1 81 50a4.8 4.8 0 0 0 8.5-4.4c0-.1-2.3-4.5-5.6-9a40 40 0 0 0-5.7-6.7c-1.2-1-2.4-1.9-3.8-2.6-1.4-.7-3-1.2-4.8-1.2a9 9 0 0 0-2.3.3c-1.6.4-3 1.2-4.2 2.1-2.1 1.6-3.5 3.6-4.7 5.6a39.3 39.3 0 0 0-3.1 6.9c-3.7-1.7-12-5-16.4-7-3.5-2-8.4-1.5-9.9 1.7l-.4 1h.3c1.7 0 2.8-.2 2.8-.2z"/>
    <path d="M15.4 29.9a3 3 0 0 0-4.1-1.2 3 3 0 0 0-1.2 4.1 20 20 0 0 0 9.4 8.9 22.8 22.8 0 0 0 10 1.9c2.1 0 3.5-.4 3.6-.4a3 3 0 0 0-1.3-6c-.2 0-1.4.3-3 .3h-.5a16.5 16.5 0 0 1-6.7-1.6 13.9 13.9 0 0 1-6.2-6zM72.1 58L79.8 78a3.4 3.4 0 1 0 6.4-2.4l-12.5-33a3.4 3.4 0 1 0-6.5 2.5l2.5 6.4L10.9 74a3.4 3.4 0 1 0 2.5 6.4L72 58z"/>
  </g>
</svg>
