<?xml version="1.0" encoding="UTF-8" standalone="no"?>
<!DOCTYPE svg PUBLIC "-//W3C//DTD SVG 1.1//EN" "http://www.w3.org/Graphics/SVG/1.1/DTD/svg11.dtd">
<svg width="100%" height="100%" viewBox="0 0 100 100" version="1.1" xmlns="http://www.w3.org/2000/svg" xmlns:xlink="http://www.w3.org/1999/xlink" xml:space="preserve" style="fill-rule:evenodd;clip-rule:evenodd;stroke-linejoin:round;stroke-miterlimit:2;">
    <g transform="matrix(1.8216,0,0,1.8216,4.45992,4.45718)">
        <circle cx="27.545" cy="6.761" r="3.575"/>
    </g>
    <g transform="matrix(1.8216,0,0,1.8216,4.45992,4.45718)">
        <path d="M16.112,25.091C15.646,25.303 15.325,25.718 15.325,26.201C15.325,26.899 15.985,27.465 16.8,27.465L18.228,27.465L19.334,30.722L17.045,32.925C15.701,31.833 13.99,31.177 12.128,31.177C7.816,31.177 4.31,34.685 4.31,38.995C4.31,43.305 7.817,46.813 12.128,46.813C16.112,46.813 19.404,43.815 19.881,39.958L21.917,39.958L22.699,34.642L20.845,29.167L16.112,25.091ZM12.128,44.503C9.091,44.503 6.62,42.032 6.62,38.995C6.62,35.958 9.091,33.487 12.128,33.487C13.337,33.487 14.452,33.883 15.361,34.546L11.46,38.302C11.177,38.573 11.088,38.991 11.235,39.355C11.381,39.72 11.735,39.959 12.128,39.959L17.546,39.959C17.089,42.536 14.836,44.503 12.128,44.503ZM14.516,38.032L16.701,35.928C17.12,36.551 17.411,37.264 17.547,38.032L14.516,38.032ZM19.881,38.032C19.71,36.649 19.175,35.38 18.376,34.315L20.018,32.735L21.818,38.032L19.881,38.032Z" style="fill-rule:nonzero;"/>
    </g>
    <g transform="matrix(1.8216,0,0,1.8216,4.45992,4.45718)">
        <path d="M37.872,31.177C37.473,31.177 37.083,31.216 36.7,31.275L34.678,24.086L32.509,23.347C32.512,23.42 32.512,23.493 32.531,23.566L33.607,27.392L26.674,27.392L23.697,22.954L26.901,18.309L29.079,21.048C29.252,21.266 29.484,21.429 29.748,21.518L35.901,23.616C36.026,23.659 36.153,23.671 36.279,23.679C36.385,23.742 36.478,23.802 36.528,23.861C36.795,24.166 36.889,24.706 36.909,25.156C36.931,25.688 37.389,26.099 37.912,26.076C38.443,26.054 38.855,25.604 38.832,25.073C38.78,23.871 38.424,22.984 37.797,22.401C37.867,21.744 37.478,21.101 36.824,20.88L31.075,18.918C31.075,18.917 29.781,16.302 28.17,13.989C27.246,12.665 26.563,11.479 25.086,10.843C21.029,9.097 19.386,12.443 19.386,12.443L15.798,19.406C14.733,21.655 15.689,23.402 16.494,24.095L24.047,30.601L22.726,39.578C22.648,40.639 23.445,41.562 24.505,41.641C24.553,41.643 24.601,41.645 24.648,41.645C25.647,41.645 26.492,40.874 26.567,39.862L26.991,36.833L34.383,30.149L34.845,31.792C32.033,32.978 30.054,35.761 30.054,38.999C30.054,43.31 33.561,46.817 37.872,46.817C42.183,46.817 45.69,43.309 45.69,38.999C45.69,34.689 42.183,31.177 37.872,31.177ZM27.407,33.856L27.959,29.915C27.975,29.71 27.945,29.511 27.897,29.315L32.429,29.315L27.407,33.856ZM37.872,44.503C34.835,44.503 32.364,42.032 32.364,38.995C32.364,36.817 33.638,34.934 35.478,34.042L36.944,39.255C37.064,39.681 37.45,39.958 37.871,39.958C37.957,39.958 38.045,39.946 38.132,39.923C38.644,39.778 38.943,39.247 38.799,38.735L37.331,33.514C37.509,33.496 37.688,33.487 37.872,33.487C40.909,33.487 43.38,35.958 43.38,38.995C43.38,42.032 40.909,44.503 37.872,44.503Z" style="fill-rule:nonzero;"/>
    </g>
</svg>
