<svg width="100%" height="100%"  viewBox="0 0 100 100" xmlns="http://www.w3.org/2000/svg" fill-rule="evenodd" clip-rule="evenodd" stroke-linejoin="round" stroke-miterlimit="2">
  <circle cx="35.1" cy="12.8" r="10.8" transform="matrix(.6167 0 0 .6167 11.6 8.3)"/>
  <path d="M87.3 59.6H70.4v8.7H56.2v8.8h-3.9c.4-.5.6-1.2.6-1.8-.2-1-.5-1.8-1.1-2.6-4.5-5-7.2-8.3-7.4-10.5-.2-2.2 1-4 4.8-8.9 2.3-3 2.7-5.8 1.3-9.5L47 34.3l4.6 2.8c1.5 3 2.4 5.9 3.6 9.2 1.2 3.5 4.6 5.8 6 2.1.6-1.9-1.4-7.2-2.4-10.3-.7-2.2-1.9-5.7-4.2-7-4.7-2.6-11.6-7.9-15.5-7.4-9 1.3-9.8 11.8-11.8 16.6C26 44 19.3 47.1 16 49.2c.8-.5 1.4-1 0 0-2.2 1.4-1 .6 0 0-4 2.5.3 6.7 4 4.3l7-4.5c1.4-1 4.8-2.4 5.5-4.1 1-1.6 1.6-4 2.3-5.8l3.4 11.7L37 55l-7 23.3c-2.3 4.4 4.5 7.7 6.7 3.4l3.5-11.1c1.4 2 3.3 4.1 5.4 6.5h-3.5v8.7H14.7v2.7h30.1v-8.7H59v-8.7H73v-8.8h14.2v-2.7z" fill-rule="nonzero"/>
</svg>
