<svg width="100%" height="100%" viewBox="0 0 100 100" xmlns="http://www.w3.org/2000/svg" fill-rule="evenodd" clip-rule="evenodd" stroke-linejoin="round" stroke-miterlimit="2">
  <path d="M49.3 15.6a33.2 33.2 0 1 0 0 66.4 33.2 33.2 0 0 0 0-66.4zM78.9 61c-.4 0-1-.2-1.2-.7 0-.2.1-1 .3-1.4.1-1 .5-1.7.8-2.5.2-.7.4-1.6 1.1-1.6.5-.1.6.3 1 .2 0 .8-1.8 5.7-2 6zm-3.2-20.3c-.3.3-.9.6-1.6.4-.6-.2-1.2-.8-1.6-1.5-.6-.8-1.2-1.6-1.3-2.8 0-1.4.3-2.7 1.4-2.9 1.4-.2 2.4 1.6 3 2.5.4.5.6 1 .7 1.4.3 1.1 0 2.3-.6 2.9zM53 28.5c1.3-.2 3.1.2 4.1.7 1 .5 2.6 2 2.9 3.5.1 1.6-.8 2.4-1.8 3-.8.3-1.7.6-2.9.5a6.2 6.2 0 0 1-4.5-2.8c-.6-1-.8-2.4-.2-3.5a3 3 0 0 1 2.4-1.4zm-1.6-10.3c0-.7.7-1 1.4-1.1 1.5-.2 3.2.3 4.3.8.4.2.8.6.8 1s-.4.6-.7.8c-1 0-1.8-.2-2.8-.3-.7-.1-1.5 0-2-.2-.5-.1-1-.6-1-1zm-.7 30c.5-.3 1-.4 1.9-.5 1.7-.2 3.1.5 4 1.6a6 6 0 0 1 1.1 2.5C58 54 56 56 54.5 56.7c-1.5.6-3.4.2-4.4-.7a5 5 0 0 1-1.9-3.7c0-1.7 1.3-3.2 2.5-4zM58.4 70c1-1.2 2.6-2.2 4.6-2.5h1.4c.7.2 1.4 1 1.5 1.5.2.9-.4 1.6-.8 2-.9 1-2.6 2-4.3 2.5-.7.2-1.5.4-2 .2-.5 0-1-.7-1.2-1-.2-.9.4-2.1.8-2.7zm-23.1-6.2c1.3-.2 2.9.5 3.8 1.3.8.6 1.7 1.7 2 2.7.4 1.3-.2 2.6-1.3 2.9-1.2.3-3-.4-3.7-.8-1-.5-2.2-1.5-3-2.5-.2-.3-.4-.8-.4-1.3 0-1.2 1.3-2.2 2.6-2.3zm-2.8-27.6c-.5 0-1.2-.8-1.4-1.1-.6-1.2-.2-3.3.5-4.1 1-1.3 2.6-2.3 4.7-2.4.5 0 1 .1 1.5.6.9.9.5 3-.1 4.1-.7 1-2.2 2.4-3.4 2.8-.6.2-1.4.3-1.8 0zM21.6 53.4c-.6 0-1.1-.9-1.4-1.7-.3-1-.7-2.3-.5-3.9 0-1.2.5-2.5 1.6-2.7 1.2.7 1.7 2.3 1.8 4.3.1 1.3-.3 4-1.5 4z" fill-rule="nonzero"/>
</svg>
