<svg width="100%" height="100%"  viewBox="0 0 100 100" xmlns="http://www.w3.org/2000/svg" fill-rule="evenodd" clip-rule="evenodd" stroke-linejoin="round" stroke-miterlimit="2">
  <path d="M90.1 24.5c-.6-1.9-2.6-2.7-4.4-2L73.5 27 63 24.1c-.5-.2-1-.2-1.7 0l-13 3c-.8.2-1.6.7-2 1.5l-6.1 9-9.9 11a3.5 3.5 0 0 0 .3 4.9 3.2 3.2 0 0 0 4.8-.3l10.2-11.1.2-.4 3.8-5.6-.4 9.2-4.8 6.8-6.4 7.5-9.8 7.9a4 4 0 0 0-.6 5.4c.7 1 1.9 1.5 3 1.5.8 0 1.7-.3 2.5-.8l10-8 .6-.6 9.5-10L50 65.5l-7.7 12.8a4 4 0 0 0 1.4 5.4 4 4 0 0 0 2 .6c1.3 0 2.6-.7 3.3-2l7.9-13c0-.3.2-.5.3-.6l5.2-11.4L65.3 32l7.6 2.1c.7.2 1.4.2 2 0l13.2-5a3.6 3.6 0 0 0 2-4.5zM57.5 24a6.2 6.2 0 1 0-8.4-2.5c1.7 3 5.4 4 8.4 2.4z" fill-rule="nonzero"/>
  <circle cx="15.9" cy="86" r="8.3" transform="rotate(-72.7 14.8 75) scale(.91319)"/>
</svg>
