<svg width="100%" height="100%"  viewBox="0 0 100 100" xmlns="http://www.w3.org/2000/svg" fill-rule="evenodd" clip-rule="evenodd" stroke-linejoin="round" stroke-miterlimit="2">
  <path d="M21.3 85.3c6.3-.3 9.3.9 9.3-1.2v-3.8H20.1c.2 2.2-.7 5 1.2 5zM68.4 84.1c0 .7.6 1.2 1.2 1.2h8.2c.7 0 1.2-.5 1.2-1.2v-3.8H68.4V84zM85.1 68.7h-6l-10.6-28c1-2.3 3.4-4.1 1.7-5.2-1.8-1.1-2.1 2-9 12.4h-4.8a8 8 0 0 1 1.5 2.3h3l7 18.5H23.6v-15c0-2 1.5-3.5 3.4-3.5h9c-.7-.7-1.2-1.5-1.7-2.3H27a5.8 5.8 0 0 0-5.8 5.7v15c-5.5.4-8.4-.8-8.4 1.3.3 5-.9 8 1.1 8h71.2c.7 0 1.2-.5 1.2-1.2V70c0-.7-.5-1.2-1.2-1.2zM50.8 25c4.7 0 7.6-5.4 4.7-9.3A5.9 5.9 0 0 0 45 18.3c-.5 3.2 2.2 6.7 5.8 6.7z" fill-rule="nonzero"/>
  <path d="M47.2 54.3c0 11.4 0 11.1.2 12H56c.2-.4.2-.7.2-1.1 0-11.8.2-12-.3-13.6a5 5 0 0 0-.4-1C55 49.6 54 48.9 51 46c-1.5-1.3-1-2.9-1-3l-3.9 1a6.3 6.3 0 0 1-7.7-7c1.1-5.3.4-8.1 3-10.1 3.7-2.7 8.8.3 8 5v1l2.3-.7A7.3 7.3 0 0 0 37 30.3c-1 8.7-2.8 11.7-.8 16 2 4.2 4.6 4.5 11 8z" fill-rule="nonzero"/>
  <path d="M41.7 30.5l-1 6.7a4 4 0 0 0 4.8 4.4l11.8-3c3-.5 2.9-4.9-.1-5.4-1-.1-1.1.2-10.9 2.8l.7-4.6c.6-3.7-4.8-4.4-5.3-1zM36.6 50.9l-2 4.1-4.3-.3c-5.7-.6-6.4 8-.8 8.5l6.5.6c5.6 0 6.4-6 8-8.5-4-2.2-5.3-2.4-7.4-4.4z" fill-rule="nonzero"/>
</svg>
