<svg width="100%" height="100%"  viewBox="0 0 100 100" xmlns="http://www.w3.org/2000/svg" fill-rule="evenodd" clip-rule="evenodd" stroke-linejoin="round" stroke-miterlimit="2">
  <g transform="matrix(.79776 0 0 .83837 10.1 8.9)">
    <path d="M78.8 43.4l-9.2-9.2L64 20.8a7.6 7.6 0 0 0-7-4.1H43.1a7.6 7.6 0 0 0-7 4.1l-5.7 13.4-9.2 9.2a3.5 3.5 0 0 0 2.4 6c1 0 1.8-.5 2.5-1.1l9.7-9.7.8-1.2 3.7-8.2V75a4.2 4.2 0 1 0 8.3 0V52.8h2.8v34.7a4.2 4.2 0 1 0 8.3 0V29.2l3.7 8.2.8 1.2 9.7 9.7c.7.6 1.5 1 2.5 1a3.5 3.5 0 0 0 2.4-6z" fill-rule="nonzero"/>
    <circle cx="50" cy="6.9" r="6.9"/>
    <path d="M74.8 49.1c0 20.3-4.3 44.5-25 44.5s-25-24.2-25-44.5H22c0 31 9.6 47.2 27.8 47.2C68 96.3 77.6 80 77.6 49.1h-2.8z" fill-rule="nonzero"/>
  </g>
</svg>
