<?xml version="1.0" encoding="UTF-8" standalone="no"?>
<!DOCTYPE svg PUBLIC "-//W3C//DTD SVG 1.1//EN" "http://www.w3.org/Graphics/SVG/1.1/DTD/svg11.dtd">
<svg width="100%" height="100%" viewBox="0 0 100 100" version="1.1" xmlns="http://www.w3.org/2000/svg" xmlns:xlink="http://www.w3.org/1999/xlink" xml:space="preserve" style="fill-rule:evenodd;clip-rule:evenodd;stroke-linejoin:round;stroke-miterlimit:2;">
    <g transform="matrix(1,0,0,1,-0.000959998,0.0005)">
        <path d="M75.92,46.145C73.562,42.727 74.999,38.953 76.389,35.303C76.78,34.275 77.15,33.304 77.425,32.361C79.007,26.92 79.915,20.571 74.646,14.731C68.763,8.211 58.888,7.274 49.998,7.217C41.113,7.274 31.237,8.211 25.355,14.731C20.086,20.571 20.993,26.92 22.576,32.361C22.85,33.304 23.22,34.275 23.612,35.303C25.002,38.953 26.439,42.727 24.081,46.145C18.483,54.256 16.294,63.785 18.077,72.29C19.67,79.892 24.244,86.217 31.303,90.581C33.164,91.767 43.136,92.782 50.001,92.782C56.87,92.782 66.849,91.766 68.697,90.583C75.758,86.219 80.332,79.893 81.926,72.29C83.707,63.786 81.518,54.256 75.92,46.145ZM65.006,34.886C63.774,37.328 62.457,38.543 59.368,37.529C56.432,36.564 53.715,35.922 50,35.922C46.285,35.922 43.568,36.564 40.632,37.529C37.544,38.543 36.226,37.328 34.994,34.886C33.152,31.236 31.689,27.604 34.001,23.318C36.041,19.535 41.96,17.284 49.855,17.284L50.148,17.284C58.04,17.284 63.959,19.535 65.999,23.318C68.311,27.604 66.848,31.236 65.006,34.886Z" style="fill-rule:nonzero;"/>
    </g>
</svg>
