<?xml version="1.0" encoding="UTF-8" standalone="no"?>
<!DOCTYPE svg PUBLIC "-//W3C//DTD SVG 1.1//EN" "http://www.w3.org/Graphics/SVG/1.1/DTD/svg11.dtd">
<svg width="100%" height="100%" viewBox="0 0 100 100" version="1.1" xmlns="http://www.w3.org/2000/svg" xmlns:xlink="http://www.w3.org/1999/xlink" xml:space="preserve" style="fill-rule:evenodd;clip-rule:evenodd;stroke-linejoin:round;stroke-miterlimit:2;">
    <g transform="matrix(1,0,0,1,-70.9565,-24.3)">
        <g transform="matrix(0.332558,0,0,0.332558,80.7313,54.5327)">
            <path d="M17.586,117.722L115.415,72.164L116.242,73.94L127.613,68.629C128.405,68.26 129.23,67.961 130.067,67.74C136.933,65.922 144.096,69.283 147.098,75.73C149.274,80.403 148.759,85.643 146.209,89.717L187.467,70.503L194.361,101.046L182.034,101.046C177.616,101.046 174.034,104.628 174.034,109.046C174.034,113.464 177.616,117.046 182.034,117.046L204.368,117.046C206.8,117.046 209.098,115.941 210.617,114.041C212.135,112.143 212.707,109.656 212.172,107.284L200.873,57.224C200.645,56.215 200.23,55.298 199.682,54.492L184.059,20.945C183.877,20.553 183.659,20.191 183.423,19.846C173.46,2.241 138.468,0.473 131.4,0.299C128.376,0.249 125.491,1.91 124.088,4.641L104.675,42.419C103.427,44.848 103.545,47.616 104.743,49.855L7.147,95.305C0.955,98.188 -1.723,105.544 1.159,111.732C4.041,117.921 11.395,120.605 17.586,117.722ZM135.955,16.556C145.008,17.269 155.586,19.305 162.545,22.439L123.615,40.568L135.955,16.556Z" style="fill-rule:nonzero;"/>
        </g>
        <g transform="matrix(0.332558,0,0,0.332558,80.7313,54.5327)">
            <path d="M207.509,3.408C196.963,9.981 193.742,23.858 200.315,34.404C206.888,44.951 220.765,48.171 231.311,41.598C241.857,35.025 245.079,21.149 238.505,10.602C231.932,0.057 218.055,-3.165 207.509,3.408ZM233.4,34.994C228.789,37.868 220.79,33.357 215.532,24.92C210.274,16.483 209.748,7.315 214.359,4.441C214.817,4.156 215.317,3.963 215.836,3.82C212.602,7.471 213.486,15.645 218.222,23.243C222.957,30.841 229.906,35.235 234.609,33.941C234.251,34.345 233.858,34.709 233.4,34.994Z" style="fill-rule:nonzero;"/>
        </g>
        <g transform="matrix(0.332558,0,0,0.332558,80.7313,54.5327)">
            <path d="M145.013,76.701C142.131,70.513 134.778,67.829 128.586,70.713L82.376,92.296C76.184,95.179 73.506,102.535 76.388,108.723C79.271,114.913 86.624,117.596 92.816,114.713L139.027,93.13C145.217,90.247 147.896,82.891 145.013,76.701Z" style="fill-rule:nonzero;"/>
        </g>
    </g>
</svg>
