<?xml version="1.0" encoding="UTF-8" standalone="no"?>
<!DOCTYPE svg PUBLIC "-//W3C//DTD SVG 1.1//EN" "http://www.w3.org/Graphics/SVG/1.1/DTD/svg11.dtd">
<svg width="100%" height="100%" viewBox="0 0 100 100" version="1.1" xmlns="http://www.w3.org/2000/svg" xmlns:xlink="http://www.w3.org/1999/xlink" xml:space="preserve" style="fill-rule:evenodd;clip-rule:evenodd;stroke-linejoin:round;stroke-miterlimit:2;">
    <g transform="matrix(0.867751,0,0,0.867751,7.41601,7.08663)">
        <path d="M56.532,18.235C56.532,22.354 53.192,25.692 49.074,25.692C44.957,25.692 41.618,22.354 41.618,18.235C41.618,14.114 44.956,10.777 49.074,10.777C53.192,10.776 56.532,14.116 56.532,18.235ZM81.879,6.438C81.879,6.93 81.48,7.329 80.987,7.329L65.182,7.329C65.447,12.584 66.073,27.11 65.202,32.476C64.133,39.086 59.554,39.715 59.554,39.715C59.554,39.715 59.278,39.785 58.768,39.888L58.768,63.996L57.366,75.252L63.255,88.127C63.255,88.127 64.316,92.35 60.71,93.73C57.107,95.111 55.532,92.401 55.532,92.401L48.353,76.706L48.316,76.702L48.323,76.642L48.316,76.626L48.326,76.622L49.9,63.996L47.65,63.996L45.972,77.458L51.863,90.333C51.863,90.333 52.922,94.555 49.317,95.934C45.714,97.317 44.14,94.607 44.14,94.607L36.96,78.912L36.923,78.908L36.93,78.847L36.923,78.832L36.933,78.826L38.782,63.996L38.623,39.934L38.623,39.34C38.618,39.339 38.596,39.333 38.596,39.333C38.596,39.333 34.017,38.701 32.947,32.094C32.096,26.849 32.674,12.868 32.948,7.329L17.16,7.329C16.668,7.329 16.269,6.93 16.269,6.438C16.269,5.945 16.668,5.546 17.16,5.546L33.04,5.546C33.059,5.204 33.07,5.015 33.07,5.015C33.07,5.015 33.446,3.191 36.26,2.647C39.075,2.115 39.672,4.926 39.672,4.926L39.669,5.546L58.476,5.546L58.475,5.311C58.475,5.311 59.074,2.499 61.887,3.032C64.702,3.575 65.077,5.399 65.077,5.399C65.077,5.399 65.08,5.459 65.086,5.546L80.986,5.546C81.479,5.547 81.879,5.946 81.879,6.438ZM56.041,27.474L56.579,27.535C57.232,27.603 57.902,27.682 58.579,27.767L58.484,7.33L39.662,7.33L39.569,27.541L39.876,27.542C43.248,27.128 48.84,26.766 56.041,27.474Z" style="fill-rule:nonzero;"/>
    </g>
</svg>
