<?xml version="1.0" encoding="UTF-8" standalone="no"?>
<!DOCTYPE svg PUBLIC "-//W3C//DTD SVG 1.1//EN" "http://www.w3.org/Graphics/SVG/1.1/DTD/svg11.dtd">
<svg width="100%" height="100%" viewBox="0 0 100 100" version="1.1" xmlns="http://www.w3.org/2000/svg" xmlns:xlink="http://www.w3.org/1999/xlink" xml:space="preserve" style="fill-rule:evenodd;clip-rule:evenodd;stroke-linejoin:round;stroke-miterlimit:2;">
    <g transform="matrix(1,0,0,1,-61.3795,-18.37)">
        <g transform="matrix(0.375753,0,0,0.375753,69.5281,47.8185)">
            <path d="M148.474,16.661C127.15,17.921 114.499,21.735 95.189,33.302C87.142,39.064 84.989,45.596 85.387,51.884C72.03,59.524 42.24,75.12 10.335,82.766C3.086,84.516 -1.37,91.811 0.38,99.059C1.873,105.241 7.401,109.391 13.493,109.392C14.543,109.392 15.609,109.268 16.674,109.012C58.565,98.82 94.512,78.007 104.569,71.9C105.512,71.489 106.518,71.009 107.603,70.446C119.19,63.207 134.194,59.687 146.873,57.12L143.955,38.871C143.492,35.97 144.184,33.061 145.906,30.683C147.629,28.302 150.178,26.735 153.08,26.275C153.656,26.182 154.248,26.132 154.832,26.132C160.258,26.132 164.818,30.028 165.676,35.396L168.112,50.62C172.885,46.995 175.882,41.631 174.936,35.947C173.355,26.47 163.984,15.842 148.474,16.661Z" style="fill-rule:nonzero;"/>
        </g>
        <g transform="matrix(0.375753,0,0,0.375753,69.5281,47.8185)">
            <path d="M153.392,28.248C148.484,29.032 145.144,33.646 145.927,38.556L148.833,56.725L155.911,100.978C156.622,105.403 160.446,108.557 164.792,108.557C165.263,108.557 165.741,108.52 166.224,108.443C171.128,107.658 174.472,103.041 173.687,98.134L166.285,51.867L163.701,35.712C162.915,30.804 158.302,27.46 153.392,28.248Z" style="fill-rule:nonzero;"/>
        </g>
        <g transform="matrix(0.0477958,-0.37271,0.37271,0.0477958,126.821,129.835)">
            <circle cx="200.261" cy="22.498" r="22.495"/>
        </g>
    </g>
</svg>
