<svg width="100%" height="100%"  viewBox="0 0 100 100" xmlns="http://www.w3.org/2000/svg" fill-rule="evenodd" clip-rule="evenodd" stroke-linejoin="round" stroke-miterlimit="2">
  <path d="M67.3 19.3c-1.6 4-6.1 6-10.1 4.3a7.8 7.8 0 1 1 10.1-4.3zM44 58.4l-4.8 7.2-5.5 2.6a7 7 0 0 0-3.6 4c-.6 1.8-.5 3.7.3 5.4l.4.6-5.5 8.2a5.2 5.2 0 0 1-7.3 1.4 5.3 5.3 0 0 1-1.4-7.3l19.6-29.2 7.9 7z" fill-rule="nonzero"/>
  <path d="M33.7 44.5a4.2 4.2 0 0 1-4.1 4.9h-.4l-.4-.1a3 3 0 0 1-.4-.1L28 49l-.3-.1-.4-.2-.2-.2a4.2 4.2 0 0 1-.9-1l-.2-.2-.2-.4-.1-.3-.2-.7L23 25.6V25v-.4-.4-.4l.2-.4.1-.4.3-.4.2-.3.3-.3.2-.3.4-.2s.1-.2.3-.2l.4-.2a3.7 3.7 0 0 1 .8-.3h.2l.6-.1h.4s18.2 1 19.5 1.4c.9.3 14.8 7 15.4 10.3l4 10.5L77 34.7l.6-.3.2-.1.5-.2h.3l.5-.1h.5a2.9 2.9 0 0 1 1 .1l.5.2.3.2c.2 0 .3.2.5.3l.3.2.6.7c1.3 1.9 1 4.5-1 5.8L66.7 52.7l-.4.3-.4.2-.4.1-.4.1-.4.1a4 4 0 0 1-.4 0h-.8l-.4-.2h-.4l-.4-.3-.3-.1a4.1 4.1 0 0 1-1-1l-.1-.1-.3-.5-.2-.3v-.1L56.9 43 53 50l10.3 9.3a5.2 5.2 0 0 1 1.4 5.9v.1a5.2 5.2 0 0 1-2.7 3l-23 11a5.3 5.3 0 0 1-7-2.5l-.1-.3a5.2 5.2 0 0 1 2.6-6.7l2.8-1.3L50.8 62 45 56.9 37.4 50l-.2-.2c-3.2-3.5-.8-9.4-.2-11l3.5-8.6-8.6-.7 1.8 15z" fill-rule="nonzero"/>
</svg>
