<svg width="100%" height="100%" viewBox="0 0 100 100" xmlns="http://www.w3.org/2000/svg" fill-rule="evenodd" clip-rule="evenodd" stroke-linejoin="round" stroke-miterlimit="2">
  <g transform="matrix(.89433 0 0 .89433 6 4.4)">
    <circle cx="74" cy="14.3" r="7.3"/>
    <path d="M78.2 88.3a2 2 0 0 0-1.6 2h-.5l-7.6-2.1v-.3l4-18.8a4 4 0 0 0 0-2.1l-3-9.2.2-.6 6.7-25.6a8 8 0 0 0-15-5.3l-7 2a3 3 0 0 0-2 1.9l-4 11.2a3 3 0 0 0 .3 2.5L30.6 60l-1-.3a3.2 3.2 0 1 0 3 2.4l19-16.7c1.1-.1 2-.8 2.4-2l3.5-9.7 2-.5-5.3 20a8 8 0 0 0-.3 1.7L31.7 81.7a4 4 0 0 0-.7 3.8l-11.3.7a2 2 0 1 0 .2 4L39.6 89a2 2 0 1 0-.3-4l18.9-22.9a8 8 0 0 0 3.7 1h.9l1.7 5.3L60.8 86l-7.4-2a2 2 0 1 0-1 3.8l22.8 6.3h1.2c.9 0 2.3-.1 3.3-1.1.5-.5 1.2-1.6.9-3.3a2 2 0 0 0-2.4-1.5z" fill-rule="nonzero"/>
  </g>
</svg>
