<svg width="100%" height="100%" viewBox="0 0 100 100" xmlns="http://www.w3.org/2000/svg" fill-rule="evenodd" clip-rule="evenodd" stroke-linejoin="round" stroke-miterlimit="2">
  <g fill-rule="nonzero">
    <path d="M64.8 24.4a6.2 6.2 0 1 0 0-12.3 6.2 6.2 0 0 0 0 12.3zM81.4 47.9c-1.1 2.4-3.4 1.7-3.4 1.7L68.4 46c-1-.4-1.8-1.2-2-2.2l-2.2-6.3-3.4 9.3 10 10.5c1.3 2.2 1.2 3.8 1.2 3.8v14.5a6.5 6.5 0 1 1-1.5 12.7l-21.1-4.7v-3.1L65.2 77V63.8L54.6 53l-1.7 11.2a7.9 7.9 0 0 1-1.9 3.4l-7.4 8.6c0-.1-.2-.1-.4 0h.4A6.4 6.4 0 0 1 36.8 87l-19.5-9.5.7-3 17.9.3 8.5-9.9L47 45.7l5.5-14.6-7.6 4.4-4.6 9c-1.4 2.7-3.8 1.3-3.8 1.3-2.3-1.3-1.4-3.5-1.4-3.5l4.6-9.5c1.3-2.4 2.3-2.7 2.3-2.7l11-6c2.3-1.6 5-.4 5-.4l6.3 2.4c3.2 1.1 3.3 2.9 3.3 2.9l3.9 12.4 8.4 3s2.2 1 1.5 3.5zm-9.9 37.7h.5a3.6 3.6 0 0 0 0-7.1v.7c0 1.9-1.5 3.4-3.4 3.4-1.6 0-3-1.2-3.2-2.7l-10 2.1 16.1 3.6zm-33.1-1c.1.2.3.2.4.2a3.6 3.6 0 0 0 3-6.3l-1.5 1.7a3.4 3.4 0 0 1-4.8.3 3.4 3.4 0 0 1-1.1-2.8l-10.8-.2 14.8 7.2z"/>
  </g>
</svg>
