<svg width="100%" height="100%" viewBox="0 0 100 100" xmlns="http://www.w3.org/2000/svg" fill-rule="evenodd" clip-rule="evenodd" stroke-linejoin="round" stroke-miterlimit="2">
  <path d="M66.6 76.2c-.1 0-3.7 1-7.7 1.2a343 343 0 0 1 3.7-17.5c1-4.2 1.5-10 1.1-15.6 1 1.7 1.5 3.1 1.5 3.7.5 3.6.8 12.7.8 12.8 0 2 1.7 3.6 3.7 3.6h.2c2 0 3.7-1.7 3.7-3.8 0-.4-.4-9.4-.8-13.5-.4-3.3-3-7.7-5.3-10.5-2.5-3.4-6.5-7.3-11-7.3h-7.3c-9.2 0-12.4 9.2-14 14.2l-1 2.4c-1 2.3-6.2 6.6-9.4 8.7a3.8 3.8 0 0 0-1.1 5.2 3.6 3.6 0 0 0 3.1 1.7l-.4.6c-.7 1.5-2.5 5.4 6 22a4.8 4.8 0 1 0 8.5-4.3c-2.5-4.9-4.7-10.3-5.3-13.1A53 53 0 0 1 45 66c.8 0 5-.3 6.3-.6-3 13-2.7 16.6-1 19.2.9 1.4 2.3 2.2 4 2.4l3.3.1c6 0 11.4-1.5 11.6-1.5 2.6-.8 4.1-3.4 3.3-6a4.8 4.8 0 0 0-6-3.4zm-23-20c-3.4.2-6.9.3-9.8 1 2.9-2.4 6-5.5 7.4-8.5l1-3 1.9-4.6c.4 4.9 0 10.8-.5 15.2z" fill-rule="nonzero"/>
  <circle cx="55" cy="14.7" r="12.2" transform="matrix(.71533 0 0 .71533 13.3 7.8)"/>
</svg>
