<svg width="100%" height="100%" viewBox="0 0 100 100" xmlns="http://www.w3.org/2000/svg" fill-rule="evenodd" clip-rule="evenodd" stroke-linejoin="round" stroke-miterlimit="2">
  <path d="M77.2 13.6a3.1 3.1 0 0 0-2.4-2.5c-1.7-.3-3.5 0-5 .7a56.9 56.9 0 0 0-29.2 25.3c-2.2 4-4 8.3-5.8 12.4-4.4 10-8.2 20.4-11.4 31a8.2 8.2 0 0 0-.4 3.4 4.3 4.3 0 0 0 6.2 2.8c1.4-1 2.2-2.7 2.8-4.3l7.3-18.7 10.2 19.2c.8 1.6 1.8 3.3 3.4 4a4.3 4.3 0 0 0 5.8-3.6c0-1.2-.4-2.3-.9-3.4l-9.5-22c5.7-1 10-1.4 15-2.8 5.8-1.8 3.9-7.3 1.3-11-1.8-2.6-3.9-6.3-5.5-9-3.5-5.4-2.8-7.8 2.6-11a74 74 0 0 1 11.4-5.5c1-.3 2-.9 3-1.6.9-.8 1.3-2.1 1-3.4zM58.9 49.3l-7.5.8 4.2-5.4 3.3 4.6zM73 30.9c0 3.5-2.9 6.3-6.3 6.3a6.3 6.3 0 0 1-6.3-6.3c0-3.4 2.8-6.3 6.3-6.3 3.4 0 6.3 2.9 6.3 6.3z" fill-rule="nonzero"/>
</svg>
