<svg width="100%" height="100%" viewBox="0 0 100 100" xmlns="http://www.w3.org/2000/svg" fill-rule="evenodd" clip-rule="evenodd" stroke-linejoin="round" stroke-miterlimit="2">
  <path d="M31.6 33.2l.6-.3-1.7 7.8c-.3 1.5 0 3.2.8 4.4a6 6 0 0 0 3.5 2.4l-4.1 19.1-.1.5h6.7l4-18.5 4 .7L47 57H54L51.6 47c-.5-2.2-2.3-4-4.6-4.3l-4.2-.8 1.6-7.3.4.6c1 1.5 2.8 2.6 4.7 2.9l5.9.8c.7.1 1.3 0 1.8-.3a3 3 0 0 0 1.5-2.2c.2-1.6-1-3-2.5-3.3l-5.9-.8c-.3 0-.6-.2-.8-.5-5-7.1-6-7.5-7.5-7.6l-4.7-.3c-1 0-1.8 0-8.9 4.2-1.5 1-2.7 2.3-3.5 3.8l-3 6a3 3 0 0 0 5.2 2.6l3-5.9c.5-.6.9-1.1 1.5-1.5z" fill-rule="nonzero"/>
  <circle cx="25.3" cy="14.9" r="7.7" transform="scale(.83603) rotate(-84.4 39.5 4.2)"/>
  <path d="M83.7 38.2H72.2c-.9 0-1.4.6-1.4 1.4v7.3c0 .8-.7 1.4-1.5 1.4H57.8c-.8 0-1.4.7-1.4 1.4V57c0 .8-.7 1.4-1.4 1.4H43.4c-.8 0-1.4.7-1.4 1.4v7.3c0 .8-.7 1.4-1.4 1.4H29c-.8 0-1.4.7-1.4 1.4v7.3c0 .8-.7 1.4-1.4 1.4H14.7c-.9 0-1.5.7-1.5 1.5v7.2c0 .9.7 1.4 1.5 1.4h69c.8 0 1.4-.6 1.4-1.4V39.6c0-.8-.6-1.4-1.4-1.4z" fill-rule="nonzero"/>
</svg>
