<svg width="100%" height="100%" viewBox="0 0 100 100" xmlns="http://www.w3.org/2000/svg" fill-rule="evenodd" clip-rule="evenodd" stroke-linejoin="round" stroke-miterlimit="2">
  <g transform="matrix(.1182 0 0 .1182 1.248 2.464)">
    <circle cx="558.8" cy="131.5" r="54.2"/>
    <path d="M727.6 364.6c-15.1-2.6-75.3-13-78.7-14.2-3.9-1.3 0 0-1.3-1.9s-53.9-112.8-59-118.6c-5.1-5.8-19.2-20.5-39.1-26.9-19.9-6.4-39.8 3.8-39.8 3.8s-98.7 56.4-105.1 59.6c-6.4 3.2-12.2 14.7-12.2 14.7l-46.1 86.7c-3.8 4.8-6 10.8-6 17.3 0 15.4 12.5 27.9 27.9 27.9 13.2 0 24.2-9.1 27.1-21.4l43-81.3 26.9-15.1c-1.9 5.8-26.6 126-26.6 126l-25 142.3L326 669.1c-6.3 5.9-10.3 14.2-10.3 23.5 0 17.8 14.4 32.2 32.2 32.2 10.8 0 20.4-5.4 26.2-13.6 16.1-18.9 96.8-113.8 104.6-123 8.7-10.3 10.9-15.4 12.2-22.1 1.3-6.7 15.7-93.6 15.7-93.6l82.7 82.7v145.9h.2c1.7 16.3 15.5 29.1 32.2 29.1 16.8 0 30.5-12.7 32.2-29.1h.2v-3.9c-.2-22.2-.8-132.9 0-157.9 1-27.9-9-34-11.2-36.5-2.2-2.6-79.5-84.6-79.5-84.6l17-82.4s22.1 43.3 24.4 48.1c2.2 4.8 9.3 13.5 16.7 15.1 7.4 1.6 99.4 20.2 99.4 20.2v-.2c1.3.2 2.7.4 4.1.4 15.2 0 27.5-12.3 27.5-27.5-.2-14.4-11-26-24.9-27.3z" fill-rule="nonzero"/>
    <g fill-rule="nonzero">
      <path d="M319.7 69.9c-29.9 0-54.2 24.3-54.2 54.2 0 29.9 24.3 54.2 54.2 54.2 29.9 0 54.2-24.3 54.2-54.2 0-30-24.3-54.2-54.2-54.2M296.5 193.4c-14.3 0-25.8 6-25.8 6S172 255.8 165.6 259c-6.4 3.2-12.2 14.7-12.2 14.7l-46.1 86.7c-3.8 4.8-6 10.8-6 17.3 0 15.4 12.5 27.9 27.9 27.9 13.2 0 24.2-9.1 27.1-21.4l43-81.3 26.9-15.1c-1.9 5.8-26.6 126-26.6 126l-25 142.3-87.7 105.6c-6.3 5.9-10.3 14.2-10.3 23.5 0 17.8 14.4 32.2 32.2 32.2 10.8 0 20.4-5.4 26.2-13.6 16.1-18.9 96.8-113.8 104.6-123 8.7-10.3 10.9-15.4 12.2-22.1 1.3-6.7 15.7-93.6 15.7-93.6l82.7 82.7V600l37.4-45.1 11.4-64.8c-8.3-8.8-25.9-27.6-42-44.7-25.5-6-44.5-28.8-44.5-56 0-11.9 3.7-23.5 10.6-33.2l44.9-84.4c1-1.9 2.2-4.2 3.7-6.6-10.7-21.8-20.1-40.5-22.1-42.7-5.1-5.8-19.2-20.5-39.1-26.9-4.8-1.6-9.5-2.2-14-2.2"/>
    </g>
  </g>
</svg>
