<?xml version="1.0" encoding="UTF-8" standalone="no"?>
<!DOCTYPE svg PUBLIC "-//W3C//DTD SVG 1.1//EN" "http://www.w3.org/Graphics/SVG/1.1/DTD/svg11.dtd">
<svg width="100%" height="100%" viewBox="0 0 100 100" version="1.1" xmlns="http://www.w3.org/2000/svg" xmlns:xlink="http://www.w3.org/1999/xlink" xml:space="preserve" style="fill-rule:evenodd;clip-rule:evenodd;stroke-linejoin:round;stroke-miterlimit:2;">
    <g transform="matrix(0.940487,0,0,0.940487,2.97565,-892.709)">
        <path d="M54.626,957.362C49.556,957.362 45.432,961.486 45.432,966.556C45.433,971.659 49.557,975.751 54.626,975.751C59.729,975.751 63.864,971.659 63.864,966.556C63.864,961.486 59.729,957.362 54.626,957.362ZM53.257,978.454L51.743,978.454L53.294,978.454C53.281,978.454 53.269,978.454 53.257,978.454L53.257,978.454ZM51.726,978.454L49.3,978.464C46.238,978.464 42.798,979.275 40.251,980.639L40.262,980.639C34.744,983.689 31.085,986.44 28.789,990.256C26.067,994.78 25.816,999.904 25.837,1006.95C25.837,1006.96 25.837,1006.98 25.837,1006.99C25.837,1008.97 27.466,1010.6 29.446,1010.6C31.426,1010.6 33.056,1008.97 33.056,1006.99C33.056,1006.97 33.056,1006.95 33.055,1006.93C33.035,1000.12 33.43,996.543 34.974,993.977C36.153,992.016 38.341,990.116 42.449,987.709L39.131,1003.57L38.851,1004.91C38.851,1004.91 38.852,1004.91 38.851,1004.91C38.428,1006.93 38.711,1008.46 39.841,1010.22L46.117,1019.94L47.893,1022.7L62.244,1044.94C63.185,1046.44 64.841,1047.36 66.617,1047.36C69.446,1047.36 71.773,1045.04 71.773,1042.21C71.773,1041.19 71.472,1040.19 70.909,1039.35L51.642,1009.49L53.399,1002.16L54.684,996.79L57.365,985.601L57.367,985.601C58.25,981.89 55.254,978.465 51.728,978.462L51.727,978.462L51.726,978.454ZM59.237,989.807L56.893,999.592C57.004,999.708 57.117,999.822 57.232,999.935C61.001,1003.63 65.926,1005.07 72.784,1006.68C73.071,1006.75 73.365,1006.79 73.66,1006.79C75.641,1006.79 77.27,1005.16 77.27,1003.18C77.27,1001.49 76.086,1000.02 74.439,999.654C67.808,998.093 64.425,996.88 62.287,994.782C61.17,993.686 60.19,992.133 59.237,989.807ZM37.438,1011.66L34.231,1026.99L24.036,1038.76C23.195,1039.71 22.73,1040.93 22.73,1042.19C22.73,1045.02 25.058,1047.35 27.887,1047.35C29.407,1047.35 30.853,1046.68 31.832,1045.51L42.926,1032.7C43.515,1032.02 43.916,1031.2 44.088,1030.32L45.341,1023.9L37.438,1011.66Z" style="fill-rule:nonzero;"/>
    </g>
</svg>
