<?xml version="1.0" standalone="no"?>
<!DOCTYPE svg PUBLIC "-//W3C//DTD SVG 20010904//EN"
 "http://www.w3.org/TR/2001/REC-SVG-20010904/DTD/svg10.dtd">
<svg version="1.0" xmlns="http://www.w3.org/2000/svg"
 width="260.000000pt" height="260.000000pt" viewBox="0 0 260.000000 260.000000"
 preserveAspectRatio="xMidYMid meet">
<metadata>
Created by potrace 1.11, written by Peter Selinger 2001-2013
</metadata>
<g transform="translate(0.000000,260.000000) scale(0.100000,-0.100000)"
fill="#000000" stroke="none">
<path d="M1298 2325 c-2 -2 -52 -5 -113 -8 -117 -6 -148 -10 -235 -34 -186
-51 -325 -200 -333 -359 -4 -67 19 -184 58 -294 42 -117 43 -164 6 -230 -124
-222 -154 -314 -154 -485 0 -188 53 -329 171 -456 91 -98 154 -137 250 -154
253 -44 677 -30 797 26 57 27 157 120 211 194 83 118 122 250 119 406 -4 147
-47 278 -156 469 -38 68 -36 108 15 260 49 150 61 233 41 314 -48 205 -232
323 -534 342 -47 3 -98 7 -113 9 -15 2 -28 2 -30 0z m97 -249 c105 -9 207 -49
263 -103 24 -23 52 -98 52 -140 0 -44 -29 -133 -62 -189 -31 -53 -61 -59 -164
-33 -119 29 -260 29 -365 0 -103 -29 -135 -22 -169 36 -30 51 -60 147 -60 190
0 42 27 106 56 139 51 54 156 93 279 101 44 3 82 7 83 8 2 2 9 2 15 0 7 -2 39
-6 72 -9z"/>
</g>
</svg>
