<?xml version="1.0" encoding="UTF-8" standalone="no"?>
<!DOCTYPE svg PUBLIC "-//W3C//DTD SVG 1.1//EN" "http://www.w3.org/Graphics/SVG/1.1/DTD/svg11.dtd">
<svg width="100%" height="100%" viewBox="0 0 100 100" version="1.1" xmlns="http://www.w3.org/2000/svg" xmlns:xlink="http://www.w3.org/1999/xlink" xml:space="preserve" style="fill-rule:evenodd;clip-rule:evenodd;stroke-linejoin:round;stroke-miterlimit:2;">
    <g transform="matrix(1,0,0,1,0,-12.5)">
        <g transform="matrix(2.07395,0,0,2.07395,-1.79369,0.353681)">
            <path d="M44.8,16.2C43.6,16.7 42.4,17.3 41.2,17.8C41.2,16.7 41.2,15.7 41.1,14.6C41,12 36.9,12 37,14.6C37.1,16.3 37.1,17.9 37.1,19.6C35.6,20.3 34.1,20.9 32.7,21.6L32.7,14.7C32.7,12 28.6,12 28.6,14.7C28.6,17.7 28.6,20.6 28.7,23.5C26.9,24.4 25.1,25.2 23.3,26.2C23.2,22.6 23.1,19 22.9,15.4C22.7,12.8 18.6,12.7 18.8,15.4C19.1,19.7 19.2,24 19.3,28.4C17.2,29.5 15.1,30.6 13,31.7C13.1,26 13.2,20.4 13.6,14.7C13.8,12.1 9.6,12.1 9.5,14.7C9.1,21.1 9,27.6 8.9,34C7.2,35 5.4,36 3.7,37C1.4,38.4 3.5,41.9 5.8,40.6C6.8,40 7.9,39.4 8.9,38.8L8.9,43C8.9,45.6 13.1,45.7 13,43L13,36.4C15.1,35.2 17.2,34.1 19.3,32.9L19.3,42.7C19.2,45.4 23.4,45.4 23.4,42.7C23.5,38.7 23.5,34.7 23.4,30.7C25.2,29.8 27,28.9 28.8,28C28.8,32.9 28.9,37.8 28.9,42.7C28.9,45.4 33,45.4 33,42.7C33,37.1 32.9,31.6 32.9,26C34.4,25.3 35.9,24.6 37.4,23.9C37.5,30.3 37.4,36.6 37,43C36.8,45.6 41,45.6 41.1,43C41.5,36 41.6,29.1 41.4,22.1C42.9,21.4 44.4,20.7 46,20.1C48.3,19.2 47.2,15.2 44.8,16.2Z" style="fill-rule:nonzero;"/>
        </g>
    </g>
</svg>
