<?xml version="1.0" encoding="UTF-8"?>
<svg width="413px" height="78px" viewBox="0 0 413 78" version="1.1" xmlns="http://www.w3.org/2000/svg" xmlns:xlink="http://www.w3.org/1999/xlink">
    <!-- Generator: Sketch 52.5 (67469) - http://www.bohemiancoding.com/sketch -->
    <title>Ambientia logo BLACK RGB</title>
    <desc>Created with Sketch.</desc>
    <g id="Page-1" stroke="none" stroke-width="1" fill="none" fill-rule="evenodd">
        <g id="Ambientia-logo-BLACK-RGB" fill="#000000">
            <path d="M351.8,18.6 C349.5,18.6 347.6,18.7 347.6,21 L347.5,75 C347.5,77.3 349.4,77.4 351.7,77.4 C354,77.4 355.9,77.3 355.9,75 L356,21 C356,18.7 354.1,18.6 351.8,18.6" id="Path"></path>
            <path d="M191.5,17.7 C189.2,17.7 187.3,17.8 187.3,20.1 L187.2,75 C187.2,77.3 189.1,77.4 191.4,77.4 C193.7,77.4 195.6,77.3 195.6,75 L195.7,20.1 C195.7,17.8 193.9,17.7 191.5,17.7" id="Path"></path>
            <path d="M395.6,18.6 L376.2,18.6 C373.9,18.6 373.7,18.5 372.9,20.4 L371.8,25.8 C371.4,26.7 372,27.1 372.5,27.1 L395.6,27.1 C399.2,27.1 401.4,28 402.6,29.1 C403.8,30.2 404.6,31.8 404.6,34.7 L404.6,38.7 L377.8,38.7 C374.7,38.7 372.1,38.9 369.9,39.4 C368.2,39.8 366.6,40.5 365.2,41.5 C363.1,43.1 361.9,45.5 361.4,47.8 C360.9,50.1 360.8,52.5 360.8,55.2 L360.9,63.1 C360.9,65.6 361.3,68.9 363.4,72 C365.4,75.1 369.4,77.3 374.1,77.3 C374.2,77.3 374.3,77.3 374.4,77.3 L399.2,77.3 C401.2,77.3 403.2,77.1 405,76.4 C407.8,75.4 410.2,73.2 411.4,70.4 C412.6,67.6 413,64.6 413,60.9 L413,34.6 C413,30 411.5,25.6 408.2,22.7 C405,19.9 400.5,18.6 395.6,18.6 Z M371.5,47.8 C372.7,47.3 374.7,47.2 377.7,47.2 L377.9,47.2 L404.6,47.2 L404.6,61.1 C404.6,65.2 403.9,67.2 403.3,67.9 C403,68.3 402.8,68.5 402.2,68.7 C401.6,68.9 400.6,69.1 399.3,69.1 L374.4,69.1 C371.6,69 371,68.3 370.3,67.5 C369.7,66.6 369.3,64.9 369.3,63.3 L369.3,55.4 C369.3,53.1 369.4,51.4 369.6,50.2 C369.9,48.3 371.5,47.8 371.5,47.8 Z" id="Shape" fill-rule="nonzero"></path>
            <path d="M162.9,18.6 L150.8,18.6 C147.7,18.6 145,19 142.5,19.9 C141.9,20.1 141.3,20.4 140.7,20.7 L140.7,2.4 C140.7,0.8 140.4,0.3 138.4,0.9 L133.7,1.8 C132.8,2.1 132.3,2.8 132.3,4.4 C132.3,4.4 132.3,42 132.3,42.1 L132.4,56.5 C132.4,63 133.3,68.2 136.7,72.2 C138.4,74.2 140.6,75.5 143.1,76.3 C145.6,77.1 148.3,77.4 151.3,77.4 L162.3,77.4 C168.2,77.4 173.5,76.2 177.4,72.4 C181.3,68.6 182.8,63.1 182.8,56.4 L182.8,39.5 C182.8,32.8 181.3,27.3 177.4,23.5 C173.5,19.7 168.4,18.4 162.5,18.5 L162.9,18.6 Z M174.3,56.5 C174.3,62.1 173.1,64.9 171.5,66.4 C169.9,67.9 167.3,69.2 162.4,69.2 L151.2,69.2 C148.8,69.2 146.9,68.9 145.7,68.5 C143.8,67.8 143,67.1 142.2,65.5 C141.4,63.8 140.8,60.9 140.8,56.6 L140.7,40 C140.7,34.6 141.6,31.2 142.9,29.7 C143.5,28.9 144.3,28.3 145.5,27.9 C146.7,27.4 148.4,27.1 150.8,27.1 L162.5,27.1 C167.4,27.1 170,28.1 171.6,29.7 C173.2,31.2 174.3,33.9 174.3,39.5 L174.3,56.5 Z" id="Shape" fill-rule="nonzero"></path>
            <path d="M250.6,70.8 C250.6,70.8 250.4,69 248.1,69 L221,69 C216.1,69 213.3,68 211.7,66.4 C211.5,66.2 211.2,65.9 211,65.6 C225.5,60.3 234.4,57.5 240.4,54.6 C243.5,53.1 245.9,51.5 247.8,49.2 C249.7,46.9 250.5,44 250.7,41.2 L250.7,40.9 L250.7,26.3 C250.7,20.5 248.1,18.6 241.8,18.6 L219.5,18.6 C212.3,18.6 200.5,23.5 200.5,36.5 L200.5,59.9 C200.5,71 210.1,77.4 219.2,77.4 L249.3,77.4 C250.5,77.3 251.9,77.3 251.4,75.9 L250.6,70.8 Z M208.9,56.5 L208.9,36.5 C208.9,30.8 213.6,27 218.5,27 L222.7,27 L242.3,27 L242.3,40.7 C242.1,42.5 241.8,43.3 241.2,44 C240.3,45.2 237.7,46.9 232.2,49 C227,51 219.4,53.6 209,57.4 C208.9,57.2 208.9,56.9 208.9,56.5 Z" id="Shape" fill-rule="nonzero"></path>
            <path d="M311.6,1.7 C310.8,2 310.5,2.7 310.5,4.1 L310.5,56.6 C310.5,63.3 312,68.8 315.9,72.6 C319.8,76.4 325.1,77.6 331,77.6 L341.7,77.6 C342.7,77.6 343,77 342.7,76.2 L341.6,70.6 C341.6,70.6 341,69.1 339.8,69.2 L331,69.2 C326.1,69.2 323.3,68.2 321.7,66.6 C320.1,65.1 318.9,62.2 318.9,56.7 L318.9,46.3 C318.9,46.3 318.9,27.2 318.9,27.2 L331.1,27.2 C331.8,27.2 332.3,27.1 332.5,26.3 L334,20.1 C334.2,19.4 333.7,18.8 331.6,18.8 L318.9,18.8 L318.9,1.7 C318.9,0.4 318.3,0 317.6,0.3 C317.6,0.3 312.5,1.1 311.6,1.7" id="Path"></path>
            <path d="M285.1,18.7 L276,18.7 C270.1,18.7 264.7,19.9 260.9,23.7 C257,27.5 255.5,33 255.5,39.7 C255.5,39.7 255.5,75.1 255.5,75.1 C255.5,77.4 257.4,77.5 259.7,77.5 C262,77.5 263.9,77.4 263.9,75.1 C263.9,75.1 263.9,39.7 263.9,39.7 C263.9,34.1 265.1,31.3 266.7,29.8 C268.3,28.3 271.1,27.2 276,27.2 L285.1,27.2 C290,27.2 292.8,28.2 294.4,29.8 C296,31.3 297.2,34.2 297.2,39.7 C297.2,39.7 297.2,75.1 297.2,75.1 C297.2,77.4 299.1,77.5 301.4,77.5 L301.3,77.5 C303.6,77.5 305.6,77.4 305.6,75.1 C305.6,75.1 305.6,39.7 305.6,39.7 C305.6,33 304.1,27.5 300.2,23.7 C296.4,19.9 291,18.7 285.1,18.7" id="Path"></path>
            <path d="M127.3,35.7 C127.3,30.5 125.9,26 122.7,22.9 C119.5,19.8 115.1,18.6 110.5,18.6 L104.6,18.6 C96.4,18.6 94.5,20.8 92,23.3 C89.4,20.9 87.4,18.6 79.4,18.6 L73.5,18.6 C68.9,18.6 64.5,19.8 61.3,22.9 C58.1,26 56.7,30.6 56.7,35.7 C56.7,35.7 56.7,74.8 56.7,74.8 C56.7,76.4 57.1,77.4 58.8,77.4 C59.3,77.4 62.4,77.4 62.7,77.4 C64,77.4 65.1,76.4 65.1,74.9 C65.1,74.9 65.1,35.6 65.1,35.6 C65.1,31.9 66,29.9 67.2,28.8 C68.3,27.7 70.2,26.9 73.5,26.9 L79.4,26.9 C85.7,26.9 87.7,31.3 87.7,33.5 C87.7,33.9 87.7,34.5 87.7,34.8 L87.7,75 C87.7,77.3 89.6,77.4 91.9,77.4 C91.9,77.4 92.1,77.4 92.1,77.4 C94.4,77.4 96.1,77.3 96.1,75 L96.1,34.8 C96.1,34.4 96.1,34.1 96.1,33.7 C96.1,30.4 98.4,26.8 104.5,26.8 L110.4,26.8 C113.7,26.8 115.6,27.6 116.7,28.7 C117.8,29.8 118.8,31.7 118.8,35.5 C118.8,35.5 118.8,74.8 118.8,74.8 C118.8,77.1 120.7,77.2 123,77.2 C125.3,77.2 127.2,76.6 127.2,74.3 C127.3,74.5 127.3,35.7 127.3,35.7" id="Path"></path>
            <path d="M191.8,0.2 C189.5,0.1 187.4,0.2 187.4,2 L187.3,6.7 C187.2,9 189.1,8.7 191.4,8.8 C191.4,8.8 191.5,8.8 191.5,8.8 C193.8,8.8 195.6,9.1 195.7,6.8 L195.8,2.1 C195.9,0.2 194.1,0.3 191.8,0.2" id="Path"></path>
            <path d="M351.9,0.2 C349.6,0.1 347.5,-0.1 347.5,2 L347.4,6.8 C347.4,8.4 349.2,8.7 351.5,8.8 C351.5,8.8 351.6,8.8 351.6,8.8 C353.9,8.8 355.8,8.5 355.8,6.8 L355.9,2.3 C356,0.2 354.3,0.3 351.9,0.2" id="Path"></path>
            <path d="M35,18.7 L15.6,18.7 C13.3,18.7 13.1,18.6 12.3,20.5 L11.2,25.9 C10.8,26.8 11.4,27.2 11.9,27.2 L35,27.2 C38.6,27.2 40.8,28.1 42,29.2 C43.2,30.3 44,31.9 44,34.8 L44,38.8 L17.2,38.8 C14.1,38.8 11.5,39 9.3,39.5 C7.6,39.9 6,40.6 4.6,41.6 C2.5,43.2 1.3,45.6 0.8,47.9 C0.3,50.2 0.2,52.6 0.2,55.3 L0.3,63.2 C0.3,65.7 0.7,69 2.8,72.1 C4.8,75.2 8.8,77.4 13.5,77.4 C13.6,77.4 13.7,77.4 13.8,77.4 L38.6,77.4 C40.6,77.4 42.6,77.2 44.4,76.5 C47.2,75.5 49.6,73.3 50.8,70.5 C52,67.7 52.4,64.7 52.4,61 L52.4,34.7 C52.4,30.1 50.9,25.7 47.6,22.8 C44.4,19.9 39.9,18.7 35,18.7 Z M10.9,47.8 C12.1,47.3 14.1,47.2 17.1,47.2 L17.3,47.2 L44,47.2 L44,61.1 C44,65.2 43.3,67.2 42.7,67.9 C42.4,68.3 42.2,68.5 41.6,68.7 C41,68.9 40,69.1 38.7,69.1 L13.8,69.1 C11,69 10.4,68.3 9.7,67.5 C9.1,66.6 8.7,64.9 8.7,63.3 L8.7,55.4 C8.7,53.1 8.8,51.4 9,50.2 C9.3,48.4 10.9,47.8 10.9,47.8 Z" id="Shape" fill-rule="nonzero"></path>
        </g>
    </g>
</svg>