<?xml version="1.0" encoding="UTF-8"?>
<!-- Generator: Adobe Illustrator 23.0.3, SVG Export Plug-In . SVG Version: 6.00 Build 0)  -->
<svg version="1.0" id="ambientia" xmlns="http://www.w3.org/2000/svg" xmlns:xlink="http://www.w3.org/1999/xlink" x="0px" y="0px" viewBox="0 0 304.27 106.57" enable-background="new 0 0 304.27 106.57" xml:space="preserve">
<path fill="#FFFFFF" d="M251.57,26.41c-1.6,0-2.89,0.06-2.89,1.66l-0.04,36.99c0,1.6,1.29,1.66,2.88,1.66h0  c1.59,0,2.89-0.06,2.89-1.66l0.04-36.99C254.45,26.47,253.16,26.41,251.57,26.41z M97.85,64.7c0-0.01,0.02-26.59,0.02-26.59  c0.01-3.53-0.97-6.64-3.16-8.78c-2.19-2.14-5.2-2.97-8.35-2.96h-4.01c-5.62,0-6.95,1.53-8.6,3.24c-1.77-1.66-3.16-3.24-8.61-3.24  h-4.01c-3.15-0.01-6.16,0.83-8.35,2.96c-2.19,2.14-3.18,5.25-3.16,8.77c0,0,0.02,26.8,0.02,26.8c0,1.13,0.3,1.79,1.43,1.79  c0.32,0,2.43,0,2.69,0c0.92,0,1.66-0.65,1.66-1.69c0-0.01-0.02-26.91-0.02-26.91c0.01-2.56,0.65-3.87,1.43-4.64  c0.78-0.76,2.08-1.31,4.31-1.32h4.01c4.3,0,5.69,3.05,5.69,4.51c-0.01,0.24,0.01,0.67,0.01,0.92l0.02,27.56  c0.01,1.59,1.3,1.64,2.89,1.64c0.01,0,0.14,0,0.14,0c1.59-0.01,2.76-0.08,2.75-1.68l0.02-27.52c0-0.25-0.02-0.49-0.03-0.73  c0-2.27,1.56-4.72,5.72-4.7h4.01c2.23,0.01,3.53,0.55,4.31,1.32c0.78,0.77,1.41,2.08,1.43,4.64c0,0-0.02,26.93-0.02,26.94  c-0.01,1.6,1.28,1.67,2.88,1.67h0.01C96.56,66.71,97.85,66.29,97.85,64.7z M251.67,13.82c-1.59-0.05-2.98-0.21-2.98,1.25l-0.04,3.3  c0,1.08,1.2,1.3,2.79,1.35c0.03,0,0.07,0,0.1,0c1.55,0,2.88-0.2,2.88-1.35l0.04-3.07C254.46,13.81,253.26,13.87,251.67,13.82z   M244.66,61.91c0,0-0.44-1-1.25-0.97h-6.09c-3.35,0-5.27-0.71-6.34-1.77c-1.08-1.04-1.92-3-1.93-6.81l0.01-7.1  c0,0,0.01-13.08,0.01-13.08h8.38c0.46-0.02,0.79-0.07,0.97-0.63l1-4.27c0.15-0.51-0.2-0.87-1.66-0.87h-8.69V14.85  c0-0.88-0.4-1.14-0.91-0.98c0,0-3.49,0.58-4.11,0.93c-0.58,0.23-0.76,0.7-0.76,1.62l-0.02,35.94c-0.01,4.57,1.02,8.35,3.67,10.94  c2.65,2.57,6.31,3.41,10.36,3.41h7.38c0.69,0,0.9-0.43,0.71-0.97L244.66,61.91z M214.17,65.04c0,1.59,1.27,1.66,2.86,1.67  c1.58,0,2.91-0.07,2.91-1.65c0,0,0-24.26,0-24.26c0.01-4.57-1.03-8.35-3.67-10.95c-2.66-2.58-6.32-3.41-10.37-3.41h-6.22  c-4.06,0-7.71,0.83-10.37,3.41c-2.65,2.6-3.68,6.37-3.67,10.94c0,0,0,24.26,0,24.26c0,1.59,1.3,1.66,2.9,1.65  c1.59,0,2.88-0.07,2.88-1.67c0-0.02,0-24.26,0-24.26c0.01-3.8,0.85-5.76,1.93-6.8c1.07-1.06,2.99-1.77,6.34-1.77h6.22  c3.35,0,5.27,0.71,6.34,1.77c1.08,1.04,1.92,2.99,1.93,6.81C214.17,40.8,214.17,65.03,214.17,65.04z M141.78,19.72  c0.03,0,0.06,0,0.1,0c1.55,0,2.83,0.21,2.89-1.35l0.04-3.23c0-1.33-1.2-1.28-2.79-1.33c-1.59-0.05-2.98,0-2.98,1.25l-0.05,3.22  C138.94,19.89,140.19,19.66,141.78,19.72z M160.73,66.71h20.59c0.84-0.04,1.77-0.04,1.46-1.04l-0.51-3.53c0,0-0.15-1.2-1.72-1.2  h-18.56c-3.35,0-5.27-0.71-6.34-1.77c-0.16-0.15-0.31-0.33-0.46-0.53c9.9-3.65,16-5.56,20.13-7.55c2.1-1.02,3.79-2.12,5.05-3.71  c1.27-1.59,1.84-3.55,1.98-5.5l0.01-0.24v-9.98c0-3.99-1.81-5.28-6.09-5.28l-15.28,0c-4.96,0-13.02,3.34-13.02,12.28l-0.03,16.05  C147.94,62.32,154.53,66.71,160.73,66.71z M153.74,38.68c0-3.89,3.25-6.51,6.56-6.51h2.86l13.42,0v9.35  c-0.13,1.23-0.35,1.76-0.76,2.29c-0.59,0.83-2.41,1.98-6.19,3.44c-3.57,1.4-8.74,3.14-15.91,5.77c-0.01-0.21-0.01-0.43-0.01-0.66  L153.74,38.68z M45.48,62.01c0.84-1.88,1.11-4,1.11-6.51l0.02-18.04c0.02-3.17-1.06-6.16-3.31-8.16c-2.24-2.01-5.28-2.87-8.67-2.87  l-13.27-0.01c-1.6,0-1.69-0.05-2.27,1.21l-0.74,3.67c-0.28,0.64,0.15,0.9,0.49,0.9l15.79,0c2.46,0,3.97,0.62,4.81,1.39  c0.84,0.77,1.37,1.85,1.4,3.87l-0.01,2.77L22.5,40.21c-2.14,0-3.88,0.12-5.44,0.49c-1.17,0.28-2.27,0.72-3.23,1.45  c-1.47,1.1-2.28,2.77-2.61,4.33c-0.35,1.58-0.38,3.21-0.39,5.1l0.04,5.44c0.01,1.73,0.27,3.97,1.68,6.09  c1.35,2.1,4.08,3.64,7.36,3.64c0.07,0,0.14,0,0.21,0l17-0.01c1.39,0,2.72-0.16,3.98-0.62C43.01,65.45,44.66,63.9,45.48,62.01z   M40.81,55.51c0.02,2.78-0.51,4.2-0.91,4.64c-0.2,0.24-0.38,0.38-0.79,0.54c-0.41,0.15-1.07,0.27-2,0.27l-17.05,0.01  c-1.95-0.07-2.32-0.53-2.78-1.1c-0.44-0.61-0.7-1.79-0.68-2.87l0.01-5.44c0-1.55,0.04-2.77,0.2-3.55c0.25-1.23,1.31-1.62,1.31-1.62  c0.8-0.34,2.2-0.41,4.27-0.41h0.11l18.32,0.02V55.51z M135.81,52.36l0.02-11.56c0.01-4.57-1.02-8.35-3.67-10.94  c-2.65-2.56-6.12-3.45-10.15-3.46l-8.07,0.01c-2.11,0-3.99,0.26-5.69,0.91c-0.42,0.15-0.82,0.35-1.21,0.55l0-12.54  c0-1.07-0.23-1.47-1.59-1.04l-3.22,0.64c-0.59,0.23-0.95,0.72-0.95,1.76c0,0-0.02,25.75-0.02,25.81l0.06,9.87  c0.02,4.42,0.61,8.01,2.93,10.74c1.15,1.34,2.69,2.29,4.38,2.83c1.69,0.55,3.54,0.75,5.59,0.76h7.56c4.05,0,7.7-0.84,10.36-3.41  C134.79,60.7,135.82,56.93,135.81,52.36z M130.03,52.36c-0.01,3.81-0.85,5.77-1.93,6.81c-1.07,1.06-2.84,1.94-6.2,1.94l-7.69,0.02  c-1.65,0-2.91-0.18-3.79-0.47c-1.31-0.48-1.81-0.93-2.4-2.04c-0.56-1.13-0.94-3.14-0.93-6.06l-0.07-11.34  c-0.02-3.71,0.63-6.01,1.51-7.07c0.44-0.55,0.94-0.93,1.77-1.26c0.83-0.32,2.02-0.53,3.63-0.53l8.04-0.01  c3.37,0,5.16,0.71,6.23,1.77c1.08,1.04,1.85,2.88,1.85,6.69L130.03,52.36z M290.24,29.29c-2.24-2.01-5.28-2.87-8.67-2.87  l-13.27-0.01c-1.6,0-1.69-0.05-2.27,1.22l-0.74,3.67c-0.28,0.64,0.15,0.9,0.49,0.9l15.79,0c2.46,0,3.97,0.62,4.81,1.39  c0.84,0.77,1.37,1.85,1.4,3.87l-0.01,2.77l-18.32-0.02c-2.14,0-3.88,0.12-5.44,0.49c-1.17,0.28-2.27,0.72-3.23,1.45  c-1.47,1.1-2.28,2.77-2.61,4.33c-0.35,1.58-0.38,3.21-0.39,5.1l0.04,5.44c0.01,1.73,0.27,3.97,1.68,6.09  c1.35,2.1,4.08,3.64,7.36,3.64c0.07,0,0.14,0,0.21,0l17-0.01c1.39,0,2.72-0.16,3.98-0.62c1.91-0.66,3.56-2.2,4.37-4.09  c0.85-1.88,1.11-4,1.11-6.51l0.02-18.04C293.57,34.28,292.49,31.29,290.24,29.29z M287.75,55.49c0.02,2.78-0.51,4.2-0.91,4.64  c-0.2,0.24-0.38,0.38-0.79,0.54c-0.41,0.15-1.07,0.27-2,0.27l-17.05,0.01c-1.95-0.07-2.32-0.53-2.78-1.1  c-0.44-0.61-0.7-1.79-0.68-2.87l0.01-5.44c0-1.55,0.04-2.77,0.2-3.55c0.25-1.23,1.31-1.62,1.31-1.62c0.8-0.34,2.2-0.41,4.27-0.41  h0.11l18.32,0.02V55.49z M121.95,26.4c0.02,0,0.04,0,0.06,0l0.19,0L121.95,26.4z M144.66,65.06l0.04-37.6  c0-1.59-1.29-1.66-2.88-1.66c-1.6,0-2.89,0.06-2.89,1.66l-0.04,37.6c0,1.59,1.29,1.66,2.88,1.66h0.01  C143.37,66.71,144.66,66.65,144.66,65.06z M217.05,66.71c-0.01,0-0.01,0-0.02,0c-0.01,0-0.02,0-0.02,0H217.05z M210.78,81.39  c-0.37-0.41-0.81-0.75-1.31-0.99c-0.5-0.25-1.06-0.37-1.67-0.37c-0.67,0-1.27,0.16-1.81,0.47s-0.97,0.73-1.3,1.26v-1.58h-1.63v12.37  h1.85v-5.23c0.31,0.54,0.74,0.97,1.28,1.31c0.54,0.34,1.16,0.5,1.87,0.5c0.57,0,1.09-0.12,1.57-0.36c0.48-0.24,0.89-0.57,1.24-0.98  c0.35-0.41,0.62-0.89,0.81-1.45c0.19-0.55,0.29-1.15,0.29-1.79c0-0.61-0.1-1.18-0.31-1.73C211.44,82.29,211.15,81.81,210.78,81.39z   M209.87,85.68c-0.12,0.36-0.3,0.68-0.53,0.96c-0.23,0.28-0.5,0.5-0.82,0.67c-0.32,0.17-0.68,0.25-1.07,0.25  c-0.27,0-0.53-0.05-0.79-0.15s-0.5-0.24-0.71-0.4s-0.42-0.37-0.6-0.61s-0.33-0.49-0.44-0.76v-2.3c0.07-0.25,0.18-0.47,0.35-0.68  s0.36-0.39,0.59-0.55c0.22-0.16,0.46-0.28,0.72-0.37s0.5-0.13,0.74-0.13c0.39,0,0.76,0.08,1.09,0.24c0.34,0.16,0.62,0.37,0.87,0.64  c0.24,0.27,0.43,0.58,0.57,0.94c0.14,0.36,0.21,0.74,0.21,1.14C210.06,84.95,209.99,85.32,209.87,85.68z M173.28,86.82  c-0.14,0.15-0.3,0.28-0.49,0.39c-0.18,0.11-0.39,0.2-0.61,0.26s-0.45,0.09-0.67,0.09c-0.36,0-0.7-0.08-1.02-0.23  s-0.6-0.36-0.84-0.63c-0.24-0.27-0.43-0.59-0.57-0.95c-0.14-0.36-0.21-0.76-0.21-1.18c0-0.44,0.07-0.83,0.2-1.19  c0.13-0.36,0.32-0.67,0.55-0.93c0.24-0.26,0.51-0.47,0.83-0.61c0.32-0.15,0.66-0.22,1.03-0.22c0.44,0,0.84,0.1,1.2,0.31  c0.36,0.21,0.64,0.5,0.86,0.87l1.8-0.57c-0.32-0.66-0.81-1.19-1.47-1.59c-0.65-0.4-1.44-0.6-2.34-0.6c-0.7,0-1.32,0.12-1.88,0.36  c-0.56,0.24-1.04,0.57-1.44,0.98c-0.4,0.42-0.7,0.9-0.92,1.45c-0.21,0.55-0.32,1.13-0.32,1.75s0.11,1.2,0.33,1.75  s0.53,1.03,0.92,1.45c0.4,0.42,0.88,0.75,1.44,1s1.18,0.37,1.87,0.37c0.93,0,1.74-0.21,2.42-0.63c0.68-0.42,1.17-0.96,1.46-1.62  l-1.82-0.54C173.53,86.52,173.42,86.68,173.28,86.82z M221.03,86.79v-3.18c0-1.15-0.34-2.04-1.01-2.66  c-0.67-0.62-1.61-0.92-2.82-0.92c-1.22,0-2.4,0.38-3.53,1.14l0.57,1.18c0.48-0.33,0.95-0.57,1.4-0.75c0.45-0.17,0.92-0.26,1.39-0.26  c0.7,0,1.23,0.18,1.6,0.55c0.37,0.36,0.55,0.87,0.55,1.52v0.61c-0.33-0.12-0.69-0.22-1.09-0.29c-0.4-0.07-0.81-0.11-1.23-0.11  c-0.55,0-1.05,0.07-1.5,0.2c-0.45,0.13-0.85,0.33-1.18,0.57c-0.33,0.25-0.59,0.54-0.77,0.87c-0.18,0.34-0.27,0.71-0.27,1.13  c0,0.39,0.08,0.76,0.23,1.09c0.15,0.34,0.36,0.63,0.62,0.87c0.26,0.25,0.58,0.44,0.94,0.58c0.36,0.14,0.76,0.21,1.19,0.21  c0.66,0,1.28-0.14,1.86-0.41s1.06-0.67,1.45-1.18l0.05,0.55c0.04,0.28,0.17,0.51,0.36,0.69c0.2,0.18,0.47,0.27,0.83,0.27  c0.12,0,0.25-0.01,0.38-0.02c0.13-0.01,0.28-0.03,0.46-0.07v-1.58C221.19,87.38,221.03,87.18,221.03,86.79z M219.18,86.22  c0,0.22-0.12,0.44-0.35,0.64c-0.22,0.29-0.54,0.52-0.93,0.68c-0.4,0.16-0.82,0.24-1.27,0.24c-0.5,0-0.92-0.15-1.24-0.45  c-0.33-0.3-0.49-0.66-0.49-1.1c0-0.47,0.21-0.85,0.63-1.13c0.42-0.29,0.96-0.43,1.62-0.43c0.34,0,0.68,0.03,1.03,0.1  c0.35,0.07,0.69,0.16,1,0.29V86.22z M35.8,81.38c-0.39-0.41-0.87-0.74-1.42-0.98c-0.55-0.25-1.17-0.37-1.86-0.37  c-0.69,0-1.32,0.12-1.88,0.36s-1.04,0.57-1.44,0.99c-0.4,0.42-0.71,0.91-0.92,1.46s-0.33,1.14-0.33,1.76s0.11,1.2,0.33,1.75  c0.22,0.55,0.53,1.03,0.92,1.45c0.4,0.41,0.88,0.74,1.44,0.98c0.56,0.24,1.18,0.36,1.87,0.36c0.93,0,1.75-0.21,2.45-0.63  c0.7-0.42,1.2-0.96,1.5-1.62l-1.58-0.45c-0.09,0.2-0.21,0.39-0.37,0.56c-0.16,0.17-0.34,0.31-0.54,0.43  c-0.2,0.12-0.42,0.21-0.66,0.27c-0.24,0.06-0.48,0.09-0.73,0.09c-0.34,0-0.66-0.06-0.97-0.19c-0.31-0.12-0.58-0.3-0.82-0.53  c-0.24-0.23-0.44-0.5-0.59-0.82c-0.15-0.31-0.24-0.67-0.28-1.06h7.04c0.01-0.08,0.02-0.18,0.03-0.29c0.01-0.12,0.02-0.24,0.02-0.38  c0-0.59-0.1-1.16-0.31-1.71S36.2,81.79,35.8,81.38z M29.87,83.91c0.03-0.37,0.12-0.71,0.27-1.03c0.15-0.31,0.34-0.58,0.57-0.8  c0.24-0.22,0.51-0.39,0.82-0.51c0.31-0.12,0.64-0.19,0.98-0.19c0.35,0,0.68,0.06,0.99,0.19c0.31,0.12,0.59,0.29,0.82,0.51  c0.24,0.22,0.43,0.48,0.58,0.8c0.15,0.31,0.24,0.66,0.28,1.03H29.87z M63.56,87.28c-0.24,0.09-0.48,0.13-0.74,0.13  c-0.26,0-0.47-0.07-0.65-0.21c-0.17-0.14-0.27-0.37-0.29-0.68v-4.91h1.92v-1.43h-1.92v-2.89h-1.85v2.89h-1.16v1.43h1.16v5.5  c0,0.36,0.06,0.66,0.17,0.92c0.11,0.25,0.27,0.46,0.46,0.61c0.2,0.16,0.42,0.28,0.68,0.35s0.53,0.12,0.82,0.12  c0.47,0,0.91-0.07,1.33-0.21c0.41-0.14,0.74-0.27,0.98-0.38l-0.39-1.46C63.96,87.11,63.79,87.19,63.56,87.28z M57.05,86.79v-6.61  H55.2v5.48c-0.26,0.62-0.62,1.09-1.09,1.41s-0.97,0.49-1.5,0.49c-1.12,0-1.68-0.79-1.68-2.37v-5.01h-1.85v5.38  c0,1.19,0.24,2.08,0.71,2.68s1.17,0.9,2.08,0.9c0.75,0,1.44-0.17,2.07-0.5c0.63-0.33,1.14-0.82,1.53-1.45l0.03,0.87  c0.01,0.29,0.13,0.53,0.37,0.71c0.24,0.18,0.52,0.28,0.86,0.28c0.11,0,0.23-0.01,0.35-0.02c0.12-0.01,0.28-0.03,0.47-0.07v-1.58  c-0.19-0.01-0.32-0.06-0.4-0.15C57.09,87.15,57.05,87,57.05,86.79z M46.33,76.53c-0.86,0-1.55,0.31-2.05,0.94  c-0.5,0.63-0.76,1.48-0.76,2.57v0.35h-1.18v1.43h1.18v7.14h1.85v-7.14h2.25V80.4h-2.25V80c0-0.62,0.11-1.09,0.34-1.41  c0.23-0.33,0.56-0.49,1-0.49c0.21,0,0.43,0.03,0.66,0.1c0.23,0.07,0.43,0.15,0.6,0.25l0.4-1.38c-0.31-0.17-0.64-0.3-0.99-0.39  C47.04,76.58,46.68,76.53,46.33,76.53z M184.26,81.39c-0.4-0.41-0.87-0.75-1.43-0.99c-0.55-0.25-1.17-0.37-1.86-0.37  s-1.3,0.12-1.86,0.37c-0.55,0.25-1.03,0.58-1.43,0.99c-0.4,0.42-0.7,0.9-0.92,1.45s-0.32,1.13-0.32,1.74s0.11,1.19,0.32,1.74  s0.52,1.04,0.91,1.45c0.39,0.41,0.87,0.75,1.42,0.99s1.18,0.37,1.87,0.37c0.68,0,1.3-0.12,1.86-0.37c0.56-0.25,1.03-0.58,1.43-0.99  c0.4-0.42,0.7-0.9,0.92-1.45s0.32-1.13,0.32-1.74s-0.11-1.19-0.32-1.74S184.66,81.81,184.26,81.39z M183.39,85.76  c-0.13,0.36-0.32,0.67-0.55,0.94c-0.24,0.27-0.51,0.48-0.83,0.63s-0.66,0.23-1.03,0.23c-0.37,0-0.71-0.08-1.03-0.23  s-0.6-0.36-0.83-0.62c-0.24-0.26-0.42-0.57-0.55-0.93c-0.13-0.36-0.2-0.75-0.2-1.18c0-0.41,0.07-0.8,0.21-1.17  c0.14-0.36,0.33-0.68,0.56-0.95c0.24-0.27,0.51-0.48,0.83-0.64c0.32-0.16,0.66-0.24,1.02-0.24c0.37,0,0.71,0.08,1.03,0.23  c0.32,0.15,0.6,0.36,0.83,0.63s0.42,0.59,0.55,0.95s0.2,0.75,0.2,1.17C183.6,85.01,183.53,85.4,183.39,85.76z M200.22,81.11  c-0.2-0.33-0.47-0.59-0.82-0.78c-0.34-0.2-0.77-0.29-1.29-0.29c-0.72,0-1.36,0.17-1.92,0.51s-1.03,0.84-1.4,1.49  c-0.1-0.57-0.36-1.05-0.78-1.43c-0.42-0.38-1-0.57-1.72-0.57c-0.73,0-1.38,0.17-1.94,0.5c-0.57,0.33-1.02,0.8-1.37,1.42v-1.76h-1.68  v8.79h1.85v-5.23c0.19-0.62,0.5-1.12,0.94-1.5c0.44-0.38,0.92-0.57,1.45-0.57c0.5,0,0.89,0.19,1.16,0.56  c0.27,0.38,0.4,0.98,0.4,1.81v4.93h1.85v-5.21c0.19-0.62,0.5-1.12,0.93-1.5c0.43-0.39,0.91-0.58,1.44-0.58  c0.51,0,0.91,0.19,1.18,0.57c0.27,0.38,0.4,0.98,0.4,1.8v4.93h1.85v-5.36c0-0.48-0.04-0.94-0.12-1.37  C200.56,81.81,200.42,81.43,200.22,81.11z M15.97,87.28c-0.24,0.09-0.48,0.13-0.74,0.13c-0.26,0-0.47-0.07-0.65-0.21  c-0.17-0.14-0.27-0.37-0.29-0.68v-4.91h1.92v-1.43h-1.92v-2.89h-1.85v2.89h-1.16v1.43h1.16v5.5c0,0.36,0.06,0.66,0.17,0.92  c0.11,0.25,0.27,0.46,0.46,0.61c0.2,0.16,0.42,0.28,0.68,0.35s0.53,0.12,0.82,0.12c0.47,0,0.91-0.07,1.33-0.21  c0.41-0.14,0.74-0.27,0.98-0.38l-0.39-1.46C16.38,87.11,16.2,87.19,15.97,87.28z M136.14,87.28c-0.24,0.09-0.48,0.13-0.74,0.13  c-0.26,0-0.47-0.07-0.65-0.21c-0.17-0.14-0.27-0.37-0.29-0.68v-4.91h1.92v-1.43h-1.92v-2.89h-1.85v2.89h-1.16v1.43h1.16v5.5  c0,0.36,0.06,0.66,0.17,0.92c0.11,0.25,0.27,0.46,0.46,0.61c0.2,0.16,0.42,0.28,0.68,0.35s0.53,0.12,0.82,0.12  c0.47,0,0.91-0.07,1.33-0.21c0.41-0.14,0.74-0.27,0.98-0.38l-0.39-1.46C136.55,87.11,136.38,87.19,136.14,87.28z M25.63,81.11  c-0.21-0.33-0.5-0.59-0.85-0.78c-0.35-0.2-0.8-0.29-1.35-0.29c-0.68,0-1.31,0.17-1.89,0.5c-0.58,0.34-1.03,0.81-1.37,1.41V76.7  h-1.85v12.27h1.85v-5.23c0.09-0.3,0.22-0.58,0.4-0.83c0.18-0.25,0.38-0.47,0.61-0.66c0.23-0.19,0.47-0.33,0.73-0.43  c0.26-0.1,0.52-0.15,0.77-0.15c0.54,0,0.95,0.19,1.24,0.58s0.43,0.98,0.43,1.79v4.93h1.85v-5.36c0-0.48-0.04-0.94-0.13-1.37  C25.99,81.81,25.85,81.43,25.63,81.11z M73.79,86.79v-6.61h-1.85v5.48c-0.26,0.62-0.62,1.09-1.09,1.41s-0.97,0.49-1.5,0.49  c-1.12,0-1.68-0.79-1.68-2.37v-5.01h-1.85v5.38c0,1.19,0.24,2.08,0.71,2.68s1.17,0.9,2.08,0.9c0.75,0,1.44-0.17,2.07-0.5  c0.63-0.33,1.14-0.82,1.53-1.45l0.03,0.87c0.01,0.29,0.13,0.53,0.37,0.71c0.24,0.18,0.52,0.28,0.86,0.28c0.11,0,0.23-0.01,0.35-0.02  c0.12-0.01,0.28-0.03,0.47-0.07v-1.58c-0.19-0.01-0.32-0.06-0.4-0.15C73.83,87.15,73.79,87,73.79,86.79z M138.5,88.97h1.85v-8.79  h-1.85V88.97z M138.5,78.74h1.85V76.7h-1.85V78.74z M230.79,81.1c-0.2-0.33-0.46-0.59-0.8-0.78c-0.34-0.19-0.77-0.29-1.29-0.29  c-0.77,0-1.48,0.17-2.12,0.51s-1.13,0.81-1.46,1.4v-1.76h-1.68v8.79h1.85v-5.23c0.1-0.3,0.24-0.58,0.43-0.83  c0.18-0.25,0.39-0.47,0.63-0.66c0.24-0.19,0.49-0.33,0.76-0.43c0.27-0.1,0.54-0.15,0.81-0.15c0.52,0,0.91,0.19,1.17,0.56  c0.26,0.38,0.4,0.98,0.4,1.81v4.93h1.85v-5.36c0-0.48-0.04-0.94-0.12-1.37C231.12,81.81,230.99,81.43,230.79,81.1z M119.68,81.38  c-0.39-0.41-0.87-0.74-1.42-0.98c-0.55-0.25-1.17-0.37-1.86-0.37c-0.69,0-1.32,0.12-1.88,0.36s-1.04,0.57-1.44,0.99  c-0.4,0.42-0.71,0.91-0.92,1.46s-0.33,1.14-0.33,1.76s0.11,1.2,0.33,1.75c0.22,0.55,0.53,1.03,0.92,1.45  c0.4,0.41,0.88,0.74,1.44,0.98c0.56,0.24,1.18,0.36,1.87,0.36c0.93,0,1.75-0.21,2.45-0.63c0.7-0.42,1.2-0.96,1.5-1.62l-1.58-0.45  c-0.09,0.2-0.21,0.39-0.37,0.56c-0.16,0.17-0.34,0.31-0.54,0.43c-0.2,0.12-0.42,0.21-0.66,0.27c-0.24,0.06-0.48,0.09-0.73,0.09  c-0.34,0-0.66-0.06-0.97-0.19c-0.31-0.12-0.58-0.3-0.82-0.53c-0.24-0.23-0.44-0.5-0.59-0.82c-0.15-0.31-0.24-0.67-0.28-1.06h7.04  c0.01-0.08,0.02-0.18,0.03-0.29c0.01-0.12,0.02-0.24,0.02-0.38c0-0.59-0.1-1.16-0.31-1.71S120.08,81.79,119.68,81.38z M113.75,83.91  c0.03-0.37,0.12-0.71,0.27-1.03c0.15-0.31,0.34-0.58,0.57-0.8c0.24-0.22,0.51-0.39,0.82-0.51c0.31-0.12,0.64-0.19,0.98-0.19  c0.35,0,0.68,0.06,0.99,0.19c0.31,0.12,0.59,0.29,0.82,0.51c0.24,0.22,0.43,0.48,0.58,0.8c0.15,0.31,0.24,0.66,0.28,1.03H113.75z   M129.82,86.79v-3.18c0-1.15-0.34-2.04-1.01-2.66s-1.61-0.92-2.82-0.92c-1.22,0-2.4,0.38-3.53,1.14l0.57,1.18  c0.48-0.33,0.95-0.57,1.4-0.75c0.45-0.17,0.92-0.26,1.39-0.26c0.69,0,1.23,0.18,1.6,0.55c0.37,0.36,0.55,0.87,0.55,1.52v0.61  c-0.32-0.12-0.69-0.22-1.09-0.29c-0.4-0.07-0.81-0.11-1.23-0.11c-0.55,0-1.05,0.07-1.5,0.2c-0.45,0.13-0.85,0.33-1.18,0.57  c-0.33,0.25-0.59,0.54-0.76,0.87c-0.18,0.34-0.27,0.71-0.27,1.13c0,0.39,0.08,0.76,0.23,1.09c0.15,0.34,0.36,0.63,0.62,0.87  c0.26,0.25,0.58,0.44,0.94,0.58c0.36,0.14,0.76,0.21,1.19,0.21c0.66,0,1.28-0.14,1.86-0.41s1.06-0.67,1.45-1.18l0.05,0.55  c0.04,0.28,0.17,0.51,0.36,0.69c0.2,0.18,0.47,0.27,0.83,0.27c0.12,0,0.25-0.01,0.38-0.02c0.13-0.01,0.28-0.03,0.46-0.07v-1.58  C129.98,87.38,129.82,87.18,129.82,86.79z M127.97,86.22c0,0.22-0.12,0.44-0.35,0.64c-0.22,0.29-0.54,0.52-0.93,0.68  c-0.4,0.16-0.82,0.24-1.27,0.24c-0.5,0-0.92-0.15-1.24-0.45c-0.33-0.3-0.49-0.66-0.49-1.1c0-0.47,0.21-0.85,0.63-1.13  c0.42-0.29,0.96-0.43,1.62-0.43c0.34,0,0.68,0.03,1.03,0.1s0.69,0.16,1,0.29V86.22z M237.1,87.34l-2.72-7.16h-1.9l3.61,8.79  c-0.16,0.45-0.29,0.82-0.41,1.1c-0.12,0.29-0.23,0.51-0.34,0.66s-0.22,0.27-0.33,0.33c-0.11,0.06-0.23,0.09-0.38,0.09  c-0.1,0-0.23-0.01-0.39-0.03c-0.16-0.02-0.33-0.05-0.5-0.08v1.61c0.18,0.06,0.34,0.09,0.49,0.11c0.15,0.02,0.29,0.03,0.42,0.03  c0.69,0,1.26-0.17,1.71-0.51c0.44-0.34,0.75-0.76,0.93-1.27l3.98-10.83h-1.75L237.1,87.34z M89.61,81.38  c-0.39-0.41-0.87-0.74-1.42-0.98c-0.55-0.25-1.17-0.37-1.86-0.37c-0.69,0-1.32,0.12-1.88,0.36s-1.04,0.57-1.44,0.99  c-0.4,0.42-0.71,0.91-0.92,1.46s-0.33,1.14-0.33,1.76s0.11,1.2,0.33,1.75c0.22,0.55,0.53,1.03,0.92,1.45  c0.4,0.41,0.88,0.74,1.44,0.98c0.56,0.24,1.18,0.36,1.87,0.36c0.93,0,1.75-0.21,2.45-0.63c0.7-0.42,1.2-0.96,1.5-1.62l-1.58-0.45  c-0.09,0.2-0.21,0.39-0.37,0.56c-0.16,0.17-0.34,0.31-0.54,0.43c-0.2,0.12-0.42,0.21-0.66,0.27c-0.24,0.06-0.48,0.09-0.73,0.09  c-0.34,0-0.66-0.06-0.97-0.19c-0.31-0.12-0.58-0.3-0.82-0.53c-0.24-0.23-0.44-0.5-0.59-0.82c-0.15-0.31-0.24-0.67-0.28-1.06h7.04  c0.01-0.08,0.02-0.18,0.03-0.29c0.01-0.12,0.02-0.24,0.02-0.38c0-0.59-0.1-1.16-0.31-1.71S90,81.79,89.61,81.38z M83.68,83.91  c0.03-0.37,0.12-0.71,0.27-1.03c0.15-0.31,0.34-0.58,0.57-0.8c0.24-0.22,0.51-0.39,0.82-0.51c0.31-0.12,0.64-0.19,0.98-0.19  c0.35,0,0.68,0.06,0.99,0.19c0.31,0.12,0.59,0.29,0.82,0.51c0.24,0.22,0.43,0.48,0.58,0.8c0.15,0.31,0.24,0.66,0.28,1.03H83.68z   M110.86,80.1c-0.56,0.03-1.08,0.23-1.57,0.6s-0.88,0.85-1.19,1.45v-1.97h-1.71v8.79h1.85v-5.38c0.24-0.57,0.63-1.01,1.19-1.32  c0.56-0.31,1.19-0.47,1.91-0.5v-1.66c-0.06-0.01-0.12-0.02-0.19-0.02H110.86z M80.79,80.1c-0.56,0.03-1.08,0.23-1.57,0.6  s-0.88,0.85-1.19,1.45v-1.97h-1.71v8.79h1.85v-5.38c0.24-0.57,0.63-1.01,1.19-1.32c0.56-0.31,1.19-0.47,1.91-0.5v-1.66  c-0.06-0.01-0.12-0.02-0.19-0.02H80.79z M160.37,81.1c-0.2-0.33-0.46-0.59-0.8-0.78s-0.77-0.29-1.29-0.29  c-0.77,0-1.48,0.17-2.12,0.51s-1.13,0.81-1.46,1.4v-1.76h-1.68v8.79h1.85v-5.23c0.1-0.3,0.24-0.58,0.43-0.83s0.4-0.47,0.63-0.66  c0.24-0.19,0.49-0.33,0.76-0.43c0.27-0.1,0.54-0.15,0.81-0.15c0.52,0,0.9,0.19,1.17,0.56c0.26,0.38,0.4,0.98,0.4,1.81v4.93h1.85  v-5.36c0-0.48-0.04-0.94-0.12-1.37C160.71,81.81,160.57,81.43,160.37,81.1z M102.56,86.82c-0.14,0.15-0.3,0.28-0.49,0.39  c-0.19,0.11-0.39,0.2-0.61,0.26s-0.45,0.09-0.67,0.09c-0.36,0-0.7-0.08-1.02-0.23s-0.6-0.36-0.84-0.63  c-0.24-0.27-0.43-0.59-0.57-0.95c-0.14-0.36-0.21-0.76-0.21-1.18c0-0.44,0.07-0.83,0.2-1.19c0.13-0.36,0.32-0.67,0.55-0.93  c0.24-0.26,0.51-0.47,0.83-0.61c0.32-0.15,0.66-0.22,1.03-0.22c0.44,0,0.83,0.1,1.19,0.31c0.36,0.21,0.64,0.5,0.86,0.87l1.8-0.57  c-0.33-0.66-0.82-1.19-1.47-1.59c-0.66-0.4-1.44-0.6-2.34-0.6c-0.7,0-1.32,0.12-1.88,0.36c-0.56,0.24-1.04,0.57-1.44,0.98  c-0.4,0.42-0.7,0.9-0.92,1.45c-0.21,0.55-0.32,1.13-0.32,1.75s0.11,1.2,0.33,1.75s0.53,1.03,0.92,1.45c0.4,0.42,0.88,0.75,1.44,1  s1.18,0.37,1.87,0.37c0.93,0,1.74-0.21,2.42-0.63c0.68-0.42,1.17-0.96,1.46-1.62l-1.82-0.54C102.81,86.52,102.7,86.68,102.56,86.82z   M149.97,81.39c-0.4-0.41-0.87-0.75-1.43-0.99c-0.55-0.25-1.17-0.37-1.86-0.37c-0.68,0-1.3,0.12-1.86,0.37  c-0.55,0.25-1.03,0.58-1.43,0.99c-0.4,0.42-0.7,0.9-0.92,1.45s-0.32,1.13-0.32,1.74s0.11,1.19,0.32,1.74s0.52,1.04,0.91,1.45  c0.39,0.41,0.87,0.75,1.42,0.99s1.18,0.37,1.87,0.37c0.68,0,1.3-0.12,1.86-0.37s1.03-0.58,1.43-0.99c0.4-0.42,0.7-0.9,0.92-1.45  c0.21-0.55,0.32-1.13,0.32-1.74s-0.11-1.19-0.32-1.74C150.67,82.29,150.37,81.81,149.97,81.39z M149.1,85.76  c-0.13,0.36-0.32,0.67-0.55,0.94c-0.24,0.27-0.51,0.48-0.83,0.63s-0.66,0.23-1.03,0.23c-0.37,0-0.71-0.08-1.03-0.23  c-0.32-0.15-0.6-0.36-0.83-0.62c-0.24-0.26-0.42-0.57-0.55-0.93c-0.13-0.36-0.2-0.75-0.2-1.18c0-0.41,0.07-0.8,0.21-1.17  s0.33-0.68,0.56-0.95c0.24-0.27,0.51-0.48,0.83-0.64c0.32-0.16,0.66-0.24,1.02-0.24c0.37,0,0.71,0.08,1.03,0.23  c0.32,0.15,0.6,0.36,0.83,0.63s0.42,0.59,0.55,0.95c0.13,0.36,0.2,0.75,0.2,1.17C149.3,85.01,149.24,85.4,149.1,85.76z"/>
<g>
</g>
<g>
</g>
<g>
</g>
<g>
</g>
<g>
</g>
<g>
</g>
</svg>