<?xml version="1.0" encoding="UTF-8"?>
<svg width="197px" height="197px" viewBox="0 0 197 197" version="1.1" xmlns="http://www.w3.org/2000/svg" xmlns:xlink="http://www.w3.org/1999/xlink">
    <!-- Generator: Sketch 52.5 (67469) - http://www.bohemiancoding.com/sketch -->
    <title>Ambientia A logobox RED RGB</title>
    <desc>Created with Sketch.</desc>
    <g id="Page-1" stroke="none" stroke-width="1" fill="none" fill-rule="evenodd">
        <g id="Ambientia-A-logobox-RED-RGB" fill="#FF2457">
            <path d="M80.8899,96.8431 C75.1369,96.8431 71.2429,97.0291 69.0169,97.9731 C69.0169,97.9731 66.0769,99.0361 65.3899,102.4631 C64.9549,104.6261 64.8389,108.0151 64.8449,112.3271 L64.8209,127.4391 C64.7879,130.4271 65.4969,133.7161 66.7239,135.4041 C68.0079,137.0021 69.0409,138.2841 74.4529,138.4661 L121.8439,138.4291 C124.4359,138.4361 126.2739,138.1021 127.3999,137.6821 C128.5399,137.2401 129.0209,136.8641 129.5859,136.1911 C130.6899,134.9841 132.1619,131.0181 132.1059,123.3061 L132.1059,96.9061 L81.2059,96.8431 L80.8899,96.8431 Z" id="Fill-1"></path>
            <path d="M148.158,123.306 C148.136,130.275 147.409,136.151 145.062,141.388 C142.795,146.635 138.22,150.932 132.908,152.757 C129.394,154.035 125.709,154.478 121.846,154.481 L74.594,154.522 C74.4,154.526 74.207,154.526 74.018,154.526 C64.901,154.526 57.341,150.259 53.576,144.417 C49.666,138.544 48.945,132.304 48.908,127.498 L48.796,112.386 C48.811,107.127 48.912,102.615 49.872,98.211 C50.774,93.881 53.048,89.228 57.122,86.184 C59.779,84.158 62.842,82.924 66.09,82.148 C70.444,81.125 75.278,80.802 81.217,80.791 L132.128,80.854 L132.148,73.157 C132.085,67.559 130.593,64.556 128.27,62.412 C125.927,60.279 121.755,58.573 114.905,58.561 L71.037,58.55 C70.115,58.55 68.906,57.84 69.688,56.06 L71.747,45.85 C73.349,42.331 73.609,42.472 78.043,42.476 L114.914,42.513 C124.33,42.502 132.793,44.903 139.013,50.485 C145.259,56.049 148.268,64.356 148.203,73.175 L148.158,123.306 Z M0,197 L197,197 L197,0 L0,0 L0,197 Z" id="Fill-3"></path>
        </g>
    </g>
</svg>