<?xml version="1.0" encoding="UTF-8"?>
<svg width="197px" height="197px" viewBox="0 0 197 197" version="1.1" xmlns="http://www.w3.org/2000/svg" xmlns:xlink="http://www.w3.org/1999/xlink">
    <!-- Generator: Sketch 52.5 (67469) - http://www.bohemiancoding.com/sketch -->
    <title>Ambientia A logocircle RED RGB</title>
    <desc>Created with Sketch.</desc>
    <g id="Page-1" stroke="none" stroke-width="1" fill="none" fill-rule="evenodd">
        <g id="Ambientia-A-logocircle-RED-RGB" fill="#FF2457">
            <path d="M81.0733,96.8604 C75.3803,96.8604 71.5273,97.0444 69.3243,97.9784 C69.3243,97.9784 66.4143,99.0304 65.7343,102.4214 C65.3043,104.5624 65.1903,107.9164 65.1953,112.1824 L65.1713,127.1374 C65.1383,130.0944 65.8413,133.3494 67.0543,135.0194 C68.3253,136.6004 69.3483,137.8704 74.7033,138.0504 L121.6013,138.0134 C124.1663,138.0204 125.9853,137.6894 127.0993,137.2744 C128.2263,136.8364 128.7033,136.4654 129.2623,135.7994 C130.3543,134.6034 131.8113,130.6794 131.7563,123.0474 L131.7563,96.9224 L81.3863,96.8604 L81.0733,96.8604 Z" id="Fill-1"></path>
            <path d="M147.641,123.0477 C147.619,129.9437 146.9,135.7587 144.577,140.9407 C142.334,146.1347 137.806,150.3857 132.55,152.1917 C129.073,153.4567 125.426,153.8947 121.603,153.8987 L74.843,153.9387 C74.651,153.9427 74.46,153.9427 74.273,153.9427 C65.251,153.9427 57.77,149.7207 54.044,143.9387 C50.175,138.1277 49.461,131.9517 49.424,127.1967 L49.314,112.2417 C49.329,107.0377 49.428,102.5727 50.379,98.2137 C51.271,93.9287 53.521,89.3247 57.553,86.3117 C60.183,84.3077 63.213,83.0867 66.428,82.3177 C70.736,81.3067 75.52,80.9867 81.397,80.9757 L131.778,81.0377 L131.798,73.4207 C131.736,67.8817 130.259,64.9097 127.96,62.7877 C125.641,60.6767 121.513,58.9887 114.734,58.9777 L71.323,58.9667 C70.411,58.9667 69.214,58.2637 69.988,56.5017 L72.025,46.3987 C73.611,42.9157 73.868,43.0557 78.256,43.0587 L114.743,43.0957 C124.061,43.0847 132.436,45.4607 138.591,50.9847 C144.772,56.4907 147.749,64.7117 147.685,73.4387 L147.641,123.0477 Z M98.5,0.8987 C44.596,0.8987 0.899,44.5957 0.899,98.4997 C0.899,152.4037 44.596,196.1017 98.5,196.1017 C152.404,196.1017 196.102,152.4037 196.102,98.4997 C196.102,44.5957 152.404,0.8987 98.5,0.8987 Z" id="Fill-3"></path>
        </g>
    </g>
</svg>