<?xml version="1.0" encoding="UTF-8" standalone="no"?>
<!DOCTYPE svg PUBLIC "-//W3C//DTD SVG 1.1//EN" "http://www.w3.org/Graphics/SVG/1.1/DTD/svg11.dtd">
<svg width="100%" height="100%" viewBox="0 0 110 110" version="1.1" xmlns="http://www.w3.org/2000/svg" xmlns:xlink="http://www.w3.org/1999/xlink" xml:space="preserve" style="fill-rule:evenodd;clip-rule:evenodd;stroke-linejoin:round;stroke-miterlimit:2;">
    <g transform="matrix(0.0918637,0,0,0.0918637,17.6704,4.92742)">
        <path d="M690.457,563.757C696.523,571.164 702.285,578.697 707.52,586.448C707.52,586.448 711.779,593.118 715.256,598.684C772.62,690.535 785.785,808.181 749.344,911.039C731.696,960.854 702.935,1006.54 665.794,1044.3L663.904,1046.24L661.933,1048.16C647.185,1060.53 627.396,1065.38 608.194,1069.93C568.888,1079.25 528.477,1083.28 488.075,1085.81C409.012,1090.76 329.299,1089.56 251.24,1078.1C224.404,1074.15 197.253,1069.57 172.317,1058.96C165.71,1056.15 159.346,1052.85 153.763,1048.16L151.792,1046.24C102.707,995.97 67.017,932.083 52.889,862.456C35.938,778.922 49.737,689.168 90.943,614.802L91.114,614.495C81.412,564.388 52.142,519.971 33.553,473.101C-1.509,384.695 -9.316,282.799 11.189,194.66C23.126,143.352 46.674,94.068 85.435,58.417C107.551,38.074 134.17,22.826 162.799,13.409C189.8,4.528 218.355,0.733 246.673,0.443C273.454,0.204 300.236,-0.002 326.981,0C411.69,0.048 495.739,0.333 581.99,0.444C622.434,0.601 663.581,9.249 697.811,30.935C720.334,45.204 739.348,64.832 753.675,87.267C778.038,125.419 789.321,170.404 793.611,213.585C799.868,276.572 792.763,340.835 776.166,401.744C768.086,431.396 757.252,460.69 742.955,487.49C729.263,513.315 717.628,540.208 711.004,568.46C705.906,561.161 700.553,554.053 694.956,547.151C698.541,535.247 702.835,523.523 707.685,512.009C691.652,485.637 668.248,463.908 640.268,451.675C627.328,446.018 613.645,442.207 599.723,439.787C594.729,445.106 589.091,449.88 583.025,454.174C575.784,450.253 568.397,446.566 560.876,443.124C575.318,435.02 588.018,424.539 594.61,410.359C594.835,409.874 595.059,409.39 595.283,408.905C616.16,363.548 630.996,313.976 628.854,264.116C627.653,236.142 620.7,207.142 599.278,188.218C584.672,175.314 564.525,169.986 544.825,169.884C544.433,169.884 544.041,169.885 543.649,169.887C457.396,170.663 371.501,169.902 285.555,169.893C247.282,169.965 207.54,182.36 186.54,218.058C172.263,242.327 168.331,271.123 168.556,298.223C168.864,335.438 177.019,372.627 188.969,407.907C196.371,429.759 207.681,451.241 227.021,463.602C230.431,465.781 234.024,467.666 237.737,469.271C328.232,421.035 437.954,413.552 534.58,449.688C536.919,450.563 539.246,451.465 541.567,452.385C550.278,455.862 558.873,459.652 567.325,463.827C585.457,472.737 602.842,483.162 619.207,495.024C646.067,514.494 670.014,537.73 690.457,563.757ZM206.517,474.927C195.325,508.623 163.57,535.349 129.627,548.591C118.625,552.884 107.078,555.928 95.346,557.128C102.093,573.454 107.83,590.11 111.481,607.456C133.403,605.132 154.08,594.746 173.133,582.432C198.505,566.033 222.688,545.719 236.121,518.94C236.818,517.551 237.473,516.14 238.072,514.706C241.049,507.582 242.885,499.294 239.458,492.68L239.297,492.769L234.164,490.862C224.171,487.085 214.792,481.683 206.517,474.927Z" style="fill:white;"/>
    </g>
</svg>
