<?xml version="1.0" encoding="UTF-8" standalone="no"?>
<!DOCTYPE svg PUBLIC "-//W3C//DTD SVG 1.1//EN" "http://www.w3.org/Graphics/SVG/1.1/DTD/svg11.dtd">
<svg width="100%" height="100%" viewBox="0 0 100 100" version="1.1" xmlns="http://www.w3.org/2000/svg" xmlns:xlink="http://www.w3.org/1999/xlink" xml:space="preserve" style="fill-rule:evenodd;clip-rule:evenodd;stroke-linejoin:round;stroke-miterlimit:2;">
    <path d="M93,42L89,42L89,40C89,36.1 85.9,33 82,33C80.9,33 79.9,33.3 79,33.7L79,32C79,28.1 75.9,25 72,25C68.1,25 65,28.1 65,32L65,42L35,42L35,32C35,28.1 31.9,25 28,25C24.1,25 21,28.1 21,32L21,33.7C20.1,33.3 19.1,33 18,33C14.1,33 11,36.1 11,40L11,42L7,42C5.9,42 5,42.9 5,44L5,56C5,57.1 5.9,58 7,58L11,58L11,60C11,63.9 14.1,67 18,67C19.1,67 20.1,66.7 21,66.3L21,68C21,71.9 24.1,75 28,75C31.9,75 35,71.9 35,68L35,58L65,58L65,68C65,71.9 68.1,75 72,75C75.9,75 79,71.9 79,68L79,66.3C79.9,66.7 80.9,67 82,67C85.9,67 89,63.9 89,60L89,58L93,58C94.1,58 95,57.1 95,56L95,44C95,42.9 94.1,42 93,42ZM9,54L9,46L11,46L11,54L9,54ZM18,63C16.3,63 15,61.7 15,60L15,40C15,38.3 16.3,37 18,37C19.7,37 21,38.3 21,40L21,60C21,61.7 19.7,63 18,63ZM31,68C31,69.7 29.7,71 28,71C26.3,71 25,69.7 25,68L25,32C25,30.3 26.3,29 28,29C29.7,29 31,30.3 31,32L31,68ZM35,54L35,46L65,46L65,54L35,54ZM75,68C75,69.7 73.7,71 72,71C70.3,71 69,69.7 69,68L69,32C69,30.3 70.3,29 72,29C73.7,29 75,30.3 75,32L75,68ZM85,60C85,61.7 83.7,63 82,63C80.3,63 79,61.7 79,60L79,40C79,38.3 80.3,37 82,37C83.7,37 85,38.3 85,40L85,60ZM91,54L89,54L89,46L91,46L91,54Z" style="fill-rule:nonzero;"/>
</svg>
