<?xml version="1.0" encoding="UTF-8" standalone="no"?>
<!DOCTYPE svg PUBLIC "-//W3C//DTD SVG 1.1//EN" "http://www.w3.org/Graphics/SVG/1.1/DTD/svg11.dtd">
<svg width="100%" height="100%" viewBox="0 0 200 100" version="1.1" xmlns="http://www.w3.org/2000/svg" xmlns:xlink="http://www.w3.org/1999/xlink" style="fill-rule:evenodd;clip-rule:evenodd;stroke-linejoin:round;stroke-miterlimit:2;">
    <g transform="matrix(1,0,0,1,-205.157,-306.133)">
        <g>
            <g transform="matrix(0.448712,0,0,0.448712,162.643,184.077)">
                <path d="M168.6,292.2C167.5,291.8 158.2,288.7 153,292.3C151.5,293.4 149.8,295.4 149.9,299.3C149.9,302.2 149.3,302.9 149.2,303C148.6,303.5 146.4,302.9 144.9,302.5C142.2,301.8 139.1,301 136.6,302.6C135.1,303.5 134,305.1 133.5,307.4C133.2,308.6 134,309.8 135.2,310.1C135.4,310.1 135.5,310.2 135.7,310.2C136.7,310.2 137.7,309.5 137.9,308.4C138.1,307.7 138.4,306.8 138.9,306.5C139.8,305.9 141.9,306.5 143.8,306.9C146.6,307.6 149.7,308.4 152.1,306.5C153.8,305.1 154.6,302.8 154.6,299.2C154.6,297.1 155.3,296.4 155.8,296C158.2,294.3 164.1,295.4 167.2,296.5C168.4,296.9 169.7,296.3 170.1,295.1C170.4,293.9 169.8,292.6 168.6,292.2Z" style="fill:white;fill-rule:nonzero;"/>
            </g>
            <g transform="matrix(0.448712,0,0,0.448712,162.126,184.034)">
                <path d="M487.3,351.6C487.1,347.5 487.2,344.1 487.3,341.3C487.5,332.9 487.6,327.3 477.9,326.2C470.5,325.3 466.1,326.2 463.8,327C463.7,327 463.5,326.9 463.3,326.9C459.2,326.5 455.2,326.1 451.4,325.7C428.7,323.4 410.8,321.6 397.4,325C393.1,326.1 390.7,325.2 386.3,323.6C381.3,321.8 374.5,319.3 361.1,318.3L361.1,318.2C361.4,317 360.7,315.9 359.6,315.5C354.6,314 349.9,311.9 345.4,309.8C331,303.3 316.1,296.7 291.3,308C279.3,308.9 259.7,302.3 251.3,299.5C249.3,298.8 247.9,298.4 247,298.1C239,295.9 233.5,293.4 229.2,291.4C218.9,286.8 213.3,284.2 193.8,293.2C192.9,293.6 192.1,294.2 191.3,294.8C191.1,294.8 190.9,294.7 190.7,294.7C183.3,295.1 178.2,291.5 172.2,287.3C167.4,283.9 162.4,280.4 155.6,278.8C133.5,273.6 126.1,287.9 123.7,296.9C121.7,304.4 122.4,312.3 125.7,318.6C126,319.2 126.9,320.9 128.8,320.8C130.7,320.7 131.3,318.9 131.8,317.5C131.9,317.2 132.1,316.7 132.3,316.3L132.4,316.4C135.9,319.7 138.8,320.7 141.4,321.5C144.3,322.4 146.3,323.1 149.1,327.1C150.7,329.4 153.2,327.8 154.2,327.2C154.7,326.9 155.7,326.3 156.1,326.3C156.3,326.4 156.7,326.6 157.1,326.9C158,327.5 159.1,328.2 160.4,328.6C161.4,328.9 162.3,329.1 163.1,329.2C163.9,329.3 164.5,329.4 165.1,329.6C166.1,330 167.1,330.2 168,330.2C168.9,330.2 169.7,330 170.5,329.7C173.8,328.2 175.1,324.3 176.2,321.2C176.5,320.2 176.9,319.3 177.1,318.8C177.6,317.9 181.1,318.3 184.5,319.4C185.6,326.3 189.2,336.3 201,341.7C201.5,342.8 201.9,343.9 202.4,344.9C203.6,347.6 204.8,350.4 206.5,355.7C207.6,359.1 209.1,361.6 210.7,363.5C202.3,363 192.4,366.3 183.6,369.3C177.2,371.4 169.9,373.9 167.7,372.8C155.6,367.2 138.4,373.2 135.1,378.5C133.9,380.4 134.2,382.5 135.9,383.9C138,385.6 150,385.9 158.3,385.9C162.8,385.9 166.2,385.8 166.3,385.8C168.7,385.7 174.4,385.6 181,385.5C193.4,385.3 208.8,385.1 214.9,384.6C216,384.5 217.6,384.5 219.4,384.6C226.4,384.7 234.4,384.8 234.5,379.4C234.5,379 234.5,378.4 234.6,377.4C235.4,363.6 235,351.5 233.6,341.3C235,341.5 236.6,341.7 238.3,341.9C243.7,342.6 250.3,343.6 254.9,343.7C256.8,343.8 259.5,344.5 262.1,345.3C264.8,346.1 267.3,346.8 269.4,346.9C273.6,347 278,347.7 279.8,348C285.3,355.1 290.5,357.1 296.5,359.4C298.9,360.3 301.3,361.2 304.1,362.6C318,369.3 326.5,369.7 334,370.1L335.3,370.2L336.6,370.2C344.8,370.2 359.4,367.1 360.1,366.9C360.7,366.8 361.2,366.4 361.5,365.9C361.8,365.4 361.9,364.8 361.8,364.2C361.8,364.1 361.2,361.3 360.5,356.8C367.1,356.6 372.1,355.5 376.9,354.3C381.8,353.1 386.4,352.2 392.7,351.9C393.2,351.9 393.8,352 395.6,352.4C398.2,353 402.9,354.1 412.6,355.8C423.7,357.7 432.7,353.5 439.9,350C445.8,347.2 450.5,345 454.3,346.8C455.9,348.8 463.8,358.6 466.1,366.5C467.3,370.6 464.6,373.6 461.5,376.7C459.8,378.4 458.4,379.7 458.9,381.5C459,382.1 459.5,383.2 461.2,383.7C463.8,384.5 466.2,384.8 468.5,384.8C472.3,384.8 475.6,383.7 478.4,381.5C487.1,375.1 487.7,360 487.3,351.6ZM173.2,316.8C172.8,317.6 172.4,318.7 172,319.9C171.3,322 170.2,325.1 168.7,325.8C168.5,325.9 168,326.1 166.8,325.6C165.8,325.2 164.7,325 163.8,324.9C163.1,324.8 162.4,324.7 161.9,324.5C161.1,324.2 160.3,323.7 159.5,323.3C159,323 158.5,322.7 158,322.5C155.6,321.4 153.3,322.7 151.9,323.6C148.7,319.4 145.7,318.5 142.8,317.5C140.5,316.7 138.3,316 135.5,313.4C134,312 132.5,311.5 131.1,311.8C129.9,312.1 129.1,313 128.5,313.9C126.8,309.1 126.6,303.6 128.1,298.3C131.7,285.1 140.6,280.1 154.6,283.4C160.5,284.8 165.1,288 169.6,291.2C174.9,294.9 180.4,298.8 187.7,299.4C185.4,303.5 184,309 184.1,314.7C180.6,313.7 175.2,313 173.2,316.8ZM263.4,341.2C260.5,340.4 257.6,339.6 255.1,339.5C250.7,339.4 244.2,338.5 239,337.7C236.3,337.3 234.4,337.1 233,336.9C230.7,324.2 226.4,314.6 220.3,308.4C219.4,307.5 218,307.5 217.1,308.4C216.2,309.3 216.2,310.7 217.1,311.6C224.3,319.1 232.5,336.5 230.3,377.5C230.3,378.4 230.2,379 230.2,379.4C228.9,380.4 222.5,380.3 219.7,380.3C217.8,380.3 216.1,380.3 214.8,380.4C208.8,380.9 193.5,381.1 181.2,381.3C174.6,381.4 168.8,381.5 166.4,381.6C158,381.9 143.5,381.5 139.5,380.8C140.2,380.1 141.6,379.1 144.1,378C150.2,375.4 159.4,374.2 166,377.2C169.9,379 176.7,376.7 185.3,373.9C193.8,371 203.5,367.8 211.1,368.4C212.9,368.5 214.2,368.7 215.1,368.8C217.1,369 218.7,369.2 219.4,367.4C220.1,365.7 218.6,364.7 218,364.2C216.5,363.1 213,360.6 211.2,354.8C209.4,349.3 208.2,346.4 206.9,343.6C205.2,339.8 203.7,336.2 201,326.1C200.7,324.9 199.5,324.2 198.2,324.5C197,324.8 196.3,326 196.6,327.3C197.5,330.8 198.3,333.5 199,335.7C190.2,329.4 189,319.6 188.9,315.2C188.8,306.3 192.3,299.4 195.8,297.7C213.4,289.6 217.5,291.4 227.5,295.9C232,297.9 237.7,300.5 246,302.8C246.8,303 248.2,303.5 250,304.1C259,307.1 277.4,313.2 290.3,312.9C291.7,321.1 284.2,336.7 280.2,343.8C278,343.5 273.9,342.9 269.9,342.8C268.1,342.5 265.7,341.8 263.4,341.2ZM438.2,346.2C431.2,349.5 423.3,353.3 413.6,351.6C404,349.9 399.3,348.8 396.8,348.2C394.7,347.7 393.8,347.5 392.7,347.5C385.9,347.7 380.8,349 375.9,350.2C371,351.4 366.4,352.5 360,352.7C359.1,344.5 358.4,333.2 360.1,322.8C373.2,323.7 379.8,326.1 384.6,327.9C389.3,329.6 392.7,330.8 398.3,329.4C410.9,326.3 428.5,328 450.7,330.3C453.9,330.6 457.1,330.9 460.4,331.3C459.7,337.4 457.1,341.6 455.8,342.8C450.5,340.4 444.5,343.2 438.2,346.2Z" style="fill:white;fill-rule:nonzero;"/>
            </g>
            <g transform="matrix(67.3067,0,0,67.3067,219.853,404.015)">
                <path d="M0.374,-0.117C0.407,-0.117 0.434,-0.124 0.457,-0.137C0.479,-0.15 0.497,-0.168 0.51,-0.189C0.524,-0.21 0.534,-0.235 0.54,-0.263C0.545,-0.29 0.548,-0.319 0.548,-0.348L0.548,-0.71L0.685,-0.71L0.685,-0.348C0.685,-0.299 0.679,-0.254 0.668,-0.211C0.656,-0.168 0.637,-0.131 0.613,-0.099C0.588,-0.067 0.555,-0.042 0.516,-0.023C0.477,-0.004 0.43,0.005 0.375,0.005C0.318,0.005 0.27,-0.005 0.231,-0.025C0.191,-0.044 0.159,-0.07 0.134,-0.102C0.109,-0.135 0.092,-0.172 0.081,-0.215C0.07,-0.258 0.064,-0.302 0.064,-0.348L0.064,-0.71L0.202,-0.71L0.202,-0.348C0.202,-0.318 0.205,-0.289 0.211,-0.262C0.216,-0.234 0.226,-0.209 0.239,-0.188C0.253,-0.167 0.271,-0.15 0.293,-0.137C0.315,-0.124 0.342,-0.117 0.374,-0.117Z" style="fill:white;fill-rule:nonzero;"/>
            </g>
            <g transform="matrix(67.3067,0,0,67.3067,267.641,404.015)">
                <path d="M0.074,0L0.074,-0.71L0.551,-0.71L0.551,-0.589L0.212,-0.589L0.212,-0.406L0.494,-0.406L0.494,-0.294L0.212,-0.294L0.212,0L0.074,0Z" style="fill:white;fill-rule:nonzero;"/>
            </g>
            <g transform="matrix(67.3067,0,0,67.3067,309.865,404.015)">
                <path d="M0.605,-0.589L0.378,-0.589L0.378,0L0.241,0L0.241,-0.589L0.014,-0.589L0.014,-0.71L0.605,-0.71L0.605,-0.589Z" style="fill:white;fill-rule:nonzero;"/>
            </g>
            <g transform="matrix(67.3067,0,0,67.3067,348.409,404.015)">
                <path d="M0.031,-0.36C0.031,-0.403 0.039,-0.446 0.055,-0.489C0.07,-0.531 0.093,-0.569 0.123,-0.602C0.153,-0.635 0.19,-0.662 0.233,-0.683C0.276,-0.704 0.326,-0.714 0.381,-0.714C0.446,-0.714 0.503,-0.7 0.551,-0.671C0.598,-0.642 0.634,-0.605 0.657,-0.559L0.551,-0.486C0.542,-0.506 0.53,-0.523 0.517,-0.537C0.504,-0.55 0.489,-0.561 0.474,-0.569C0.459,-0.577 0.443,-0.583 0.426,-0.587C0.409,-0.59 0.393,-0.592 0.377,-0.592C0.342,-0.592 0.312,-0.585 0.286,-0.571C0.261,-0.557 0.239,-0.539 0.223,-0.517C0.205,-0.494 0.193,-0.469 0.184,-0.441C0.175,-0.412 0.171,-0.384 0.171,-0.356C0.171,-0.325 0.176,-0.295 0.186,-0.266C0.196,-0.236 0.21,-0.211 0.229,-0.189C0.247,-0.167 0.269,-0.149 0.295,-0.136C0.32,-0.123 0.348,-0.116 0.379,-0.116C0.395,-0.116 0.412,-0.118 0.429,-0.122C0.446,-0.126 0.463,-0.132 0.478,-0.141C0.494,-0.15 0.509,-0.161 0.522,-0.174C0.535,-0.188 0.546,-0.205 0.554,-0.224L0.667,-0.159C0.656,-0.132 0.64,-0.109 0.619,-0.089C0.598,-0.068 0.574,-0.051 0.548,-0.037C0.521,-0.023 0.493,-0.012 0.463,-0.005C0.433,0.002 0.404,0.006 0.375,0.006C0.324,0.006 0.278,-0.005 0.236,-0.026C0.194,-0.047 0.158,-0.075 0.128,-0.11C0.097,-0.144 0.074,-0.183 0.057,-0.227C0.04,-0.27 0.031,-0.315 0.031,-0.36Z" style="fill:white;fill-rule:nonzero;"/>
            </g>
        </g>
    </g>
</svg>
