<?xml version="1.0" encoding="UTF-8" standalone="no"?>
<!DOCTYPE svg PUBLIC "-//W3C//DTD SVG 1.1//EN" "http://www.w3.org/Graphics/SVG/1.1/DTD/svg11.dtd">
<svg width="100%" height="100%" viewBox="0 0 100 80" version="1.1" xmlns="http://www.w3.org/2000/svg" xmlns:xlink="http://www.w3.org/1999/xlink" xml:space="preserve" style="fill-rule:evenodd;clip-rule:evenodd;stroke-linejoin:round;stroke-miterlimit:2;">
    <g transform="matrix(1,0,0,1,0,-22.5)">
        <g transform="matrix(1,0,0,1,0.312805,5.56794)">
            <path d="M89.49,42.92C87.816,42.92 85.797,42.417 83.659,41.883C82.15,41.507 80.591,41.118 79.138,40.91C76.848,40.583 72.001,40.717 68.796,40.806C67.622,40.838 66.633,40.866 66,40.866L66,39.866C66.627,39.866 67.606,39.839 68.768,39.806C72.203,39.712 76.904,39.581 79.279,39.92C80.784,40.135 82.369,40.53 83.901,40.913C85.978,41.431 87.94,41.92 89.491,41.92L89.491,42.92L89.49,42.92Z" style="fill:white;fill-rule:nonzero;"/>
        </g>
        <g transform="matrix(1,0,0,1,0.312805,5.56794)">
            <path d="M88.92,47.289C87.337,46.577 85.913,46.573 85.881,46.583C66.671,46.854 66.466,46.816 66.402,46.803L66.5,46.313L66.541,45.815C67.062,45.841 80.668,45.657 85.868,45.584C85.93,45.585 87.538,45.571 89.33,46.378L88.92,47.289Z" style="fill:white;fill-rule:nonzero;"/>
        </g>
        <g transform="matrix(1,0,0,1,0.312805,5.56794)">
            <path d="M95.929,44.249C95.137,42.029 94.669,40.87 93.465,40.87L93.464,40.87C92.841,40.884 89.21,41.456 88.798,41.522C88.648,41.545 88.517,41.636 88.442,41.768C88.367,41.9 88.356,42.059 88.412,42.2C89.043,43.797 89.537,45.848 89.233,46.376C88.978,46.82 88.589,47.662 88.853,48.312C88.973,48.608 89.212,48.82 89.529,48.911C89.931,49.026 91.988,50.481 92.883,51.749C93.203,52.203 93.44,52.664 93.669,53.109C94.044,53.838 94.398,54.525 95.033,54.966C95.322,55.166 95.86,55.188 96.078,55.188C97.307,55.188 97.496,54.624 97.52,54.381C97.842,51.094 96.864,46.868 95.929,44.249Z" style="fill:white;fill-rule:nonzero;"/>
        </g>
        <g transform="matrix(1,0,0,1,0.312805,5.56794)">
            <path d="M53.282,51.675C52.328,51.675 51.553,51.468 51.501,51.454C51.365,51.403 49.506,50.646 48.317,49.585C47.259,49.383 40.5,48.089 37.259,47.319C36.204,47.069 35.528,46.871 35.079,46.74C34.785,46.655 34.553,46.587 34.465,46.581C33.401,46.506 29.58,46.166 29.58,46.166L29.669,45.17C29.669,45.17 33.475,45.509 34.534,45.583C34.73,45.597 34.953,45.662 35.359,45.78C35.797,45.908 36.459,46.101 37.49,46.346C40.972,47.174 48.567,48.614 48.643,48.629L48.787,48.656L48.893,48.757C49.931,49.737 51.777,50.492 51.817,50.508C51.833,50.508 53.519,50.939 54.742,50.421C55.325,50.173 55.767,49.249 55.93,48.811C55.901,48.568 55.828,48.508 55.82,48.502C54.541,49.14 52.659,48.519 51.856,47.497C51.58,47.145 50.677,46.926 49.172,46.845C48.86,46.828 48.776,46.824 48.653,46.75C46.504,45.473 37.881,41.466 36.988,41.052L30.778,40.373L30.886,39.379L37.333,40.11C37.716,40.287 46.633,44.417 49.073,45.838C49.113,45.84 49.164,45.843 49.225,45.846C50.57,45.919 52.027,46.098 52.642,46.88C53.174,47.558 54.547,48.005 55.389,47.559L55.497,47.517C55.726,47.458 56.098,47.469 56.406,47.694C56.725,47.926 56.903,48.314 56.934,48.847L56.94,48.942L56.911,49.032C56.85,49.217 56.287,50.851 55.132,51.343C54.535,51.595 53.875,51.675 53.282,51.675Z" style="fill:white;fill-rule:nonzero;"/>
        </g>
        <g transform="matrix(1,0,0,1,0.312805,5.56794)">
            <path d="M56.438,37.25C54.188,36.375 51.126,34.75 45.813,35.375C45.813,35.375 44.438,35.875 42.125,36.063C39.812,36.251 35.96,36.023 29.937,34.751C24.416,33.584 21.142,35.121 18.56,36.382C18.251,36.533 17.291,36.917 17.291,36.917C17.291,36.917 18.218,43.032 18.155,43.844C18.113,44.399 19.124,44.375 19.311,44.438C19.498,44.501 23.582,47.084 29.905,46.082L31,40C36.288,39.448 44.076,43.311 46.426,44.558L46.457,45.023C46.457,45.023 49.281,46.458 50.341,46.458C53.881,46.458 51.855,48.055 54.112,48.044C56.624,48.032 56.436,48.43 56.436,48.43L66.915,46.833L66.915,39.875C66.917,39.875 58.688,38.125 56.438,37.25Z" style="fill:white;fill-rule:nonzero;"/>
        </g>
        <g transform="matrix(1,0,0,1,8.31281,5.56794)">
            <path d="M27.464,75.875L25.276,75.875C25.019,75.875 24.803,75.68 24.778,75.423L23.745,68.75L8.839,68.75L7.805,75.423C7.78,75.68 7.565,75.875 7.307,75.875L5.12,75.875C4.979,75.875 4.845,75.815 4.75,75.711C4.655,75.607 4.609,75.467 4.623,75.326C4.645,75.101 6.808,56.825 6.808,54.625C6.808,53.053 7.369,51.773 7.769,51.061C7.62,50.979 7.485,50.873 7.367,50.744C6.924,50.254 6.817,49.533 6.801,49.056C6.536,48.978 6.298,48.839 6.106,48.645C5.871,48.408 5.591,47.974 5.595,47.248C5.602,46.018 6.303,45.582 6.901,45.582L25.656,45.583C26.286,45.583 26.986,46.02 26.992,47.248C26.996,47.974 26.716,48.408 26.481,48.645C26.289,48.838 26.05,48.978 25.786,49.056C25.769,49.533 25.663,50.254 25.22,50.744C25.102,50.874 24.967,50.98 24.818,51.061C25.218,51.774 25.779,53.053 25.779,54.625C25.779,56.825 27.942,75.102 27.964,75.326C27.978,75.467 27.931,75.606 27.837,75.711C27.743,75.816 27.605,75.875 27.464,75.875ZM25.731,74.875L26.914,74.875C26.571,71.336 24.777,56.703 24.777,54.625C24.777,52.569 23.642,51.07 23.631,51.056C23.515,50.905 23.495,50.701 23.579,50.53C23.663,50.359 23.837,50.251 24.028,50.251C24.286,50.251 24.409,50.149 24.478,50.072C24.801,49.716 24.803,48.925 24.779,48.676C24.765,48.535 24.811,48.396 24.906,48.291C25.001,48.187 25.135,48.127 25.277,48.127C25.476,48.127 25.652,48.061 25.773,47.939C25.919,47.793 25.995,47.555 25.993,47.253C25.991,46.832 25.876,46.581 25.687,46.581L6.932,46.583L6.931,46.583C6.71,46.583 6.596,46.834 6.594,47.254C6.593,47.556 6.669,47.794 6.814,47.94C6.934,48.061 7.11,48.128 7.31,48.128C7.451,48.128 7.585,48.188 7.68,48.292C7.775,48.396 7.821,48.536 7.808,48.676C7.785,48.927 7.789,49.722 8.11,50.074C8.178,50.149 8.3,50.25 8.558,50.25C8.748,50.25 8.921,50.358 9.006,50.529C9.09,50.699 9.07,50.903 8.955,51.054C8.944,51.069 7.808,52.582 7.808,54.624C7.808,56.702 6.014,71.335 5.671,74.874L6.854,74.874L7.888,68.201C7.913,67.944 8.128,67.749 8.386,67.749L24.2,67.749C24.457,67.749 24.673,67.944 24.698,68.201L25.731,74.875ZM24.038,67.083L8.546,67.083C8.405,67.083 8.271,67.023 8.176,66.919C8.081,66.815 8.035,66.675 8.049,66.535L9.195,54.702C9.271,54.302 9.921,51.195 11.535,50.697C11.583,50.682 11.633,50.675 11.682,50.675L20.901,50.675C20.951,50.675 21.001,50.682 21.048,50.697C22.662,51.195 23.313,54.301 23.381,54.654L24.534,66.535C24.548,66.675 24.501,66.814 24.407,66.919C24.313,67.024 24.179,67.083 24.038,67.083ZM9.097,66.083L23.487,66.083L22.394,54.798C22.174,53.691 21.539,51.981 20.815,51.675L11.769,51.675C11.045,51.981 10.41,53.692 10.183,54.846L9.097,66.083Z" style="fill:white;fill-rule:nonzero;"/>
        </g>
        <g transform="matrix(1,0,0,1,7.31281,6.56794)">
            <path d="M81.882,74.875L79.694,74.875C79.436,74.875 79.221,74.68 79.196,74.423L78.162,68.75L63.256,68.75L62.223,74.423C62.198,74.68 61.983,74.875 61.725,74.875L59.537,74.875C59.396,74.875 59.262,74.815 59.167,74.711C59.072,74.607 59.025,74.467 59.039,74.326C59.061,74.101 61.225,56.825 61.225,54.625C61.225,53.053 61.786,51.773 62.186,51.061C62.037,50.979 61.902,50.873 61.784,50.743C61.341,50.253 61.234,49.532 61.218,49.055C60.953,48.977 60.715,48.838 60.523,48.644C60.288,48.407 60.007,47.973 60.011,47.248C60.019,46.018 60.72,45.581 61.318,45.581L80.071,45.582L80.074,45.582C80.704,45.582 81.403,46.019 81.41,47.247C81.414,47.973 81.134,48.408 80.898,48.644C80.706,48.837 80.467,48.977 80.203,49.054C80.186,49.531 80.081,50.252 79.637,50.742C79.52,50.872 79.385,50.978 79.236,51.058C79.636,51.772 80.197,53.051 80.197,54.623C80.197,56.823 82.36,74.1 82.383,74.324C82.397,74.465 82.35,74.604 82.255,74.709C82.16,74.814 82.022,74.875 81.882,74.875ZM80.148,73.875L81.331,73.875C80.988,70.336 79.194,56.703 79.194,54.625C79.194,52.569 78.059,51.07 78.048,51.056C77.932,50.905 77.911,50.701 77.996,50.53C78.08,50.359 78.254,50.251 78.444,50.251C78.702,50.251 78.824,50.149 78.893,50.073C79.213,49.721 79.218,48.926 79.194,48.675C79.181,48.535 79.227,48.395 79.322,48.291C79.417,48.187 79.551,48.127 79.692,48.127C79.891,48.127 80.067,48.061 80.187,47.94C80.333,47.793 80.41,47.556 80.408,47.253C80.406,46.833 80.291,46.582 80.102,46.582L61.35,46.583L61.348,46.583C61.127,46.583 61.013,46.834 61.01,47.254C61.008,47.556 61.085,47.793 61.231,47.94C61.351,48.061 61.528,48.128 61.727,48.128C61.868,48.128 62.002,48.188 62.097,48.292C62.192,48.396 62.238,48.536 62.225,48.676C62.201,48.926 62.205,49.721 62.526,50.073C62.595,50.149 62.717,50.251 62.975,50.251C63.165,50.251 63.338,50.359 63.422,50.53C63.507,50.7 63.486,50.904 63.372,51.055C63.36,51.07 62.225,52.583 62.225,54.625C62.225,56.703 60.431,70.336 60.088,73.875L61.271,73.875L62.304,68.202C62.329,67.945 62.544,67.75 62.802,67.75L78.616,67.75C78.874,67.75 79.089,67.945 79.114,68.202L80.148,73.875ZM78.455,67.083L62.963,67.083C62.822,67.083 62.688,67.023 62.593,66.919C62.498,66.815 62.451,66.675 62.465,66.535L63.611,54.702C63.687,54.302 64.338,51.195 65.952,50.697C66,50.682 66.05,50.675 66.1,50.675L75.319,50.675C75.369,50.675 75.419,50.682 75.466,50.697C77.08,51.195 77.731,54.301 77.8,54.654L78.953,66.535C78.967,66.675 78.92,66.814 78.825,66.919C78.73,67.024 78.596,67.083 78.455,67.083ZM63.514,66.083L77.905,66.083L76.811,54.798C76.591,53.691 75.957,51.981 75.232,51.675L66.187,51.675C65.462,51.981 64.828,53.692 64.6,54.846L63.514,66.083Z" style="fill:white;fill-rule:nonzero;"/>
        </g>
        <g transform="matrix(1,0,0,1,0.312805,5.56794)">
            <path d="M18.567,42.875C18.286,42.884 15.794,43.005 14.804,44.373C14.045,45.421 13.912,45.436 13.692,45.462C13.338,45.504 11.984,45.542 11.494,45.464C11.304,45.434 10.729,45.171 10.306,44.943C10.144,44.856 9.943,44.867 9.788,44.97C9.656,45.059 9.324,45.206 9.158,45.117C9.091,45.041 9.038,44.702 9.003,44.477C8.909,43.878 8.793,43.134 8.188,42.65C7.618,42.194 7.597,42.133 7.518,41.904C7.493,41.83 7.463,41.746 7.423,41.645C7.151,40.966 5.971,39.711 5.737,39.467C5.736,39.466 5.734,39.465 5.733,39.464C5.813,39.123 5.928,38.775 6.293,38.625C7.208,38.251 7.75,39.042 8,39.667C8.25,40.292 9.167,40.207 9.625,40.125C10.083,40.043 9.917,40.876 10.625,40.917C11.333,40.958 11.583,39.917 11.458,39.417C11.333,38.917 11.333,37.542 12.104,37.584C12.875,37.626 13.638,37.994 14,39.251C14.073,39.506 15.771,39.23 16.047,38.962C16.987,38.052 17.76,36.961 17.76,36.961C17.76,36.961 17.916,36.397 17.041,35.834C16.166,35.271 14.603,32.96 13.624,32.48C12.645,32 10.981,30.511 9.02,32.022C8.01,32.8 7.827,32.673 7.104,32.813C6.8,32.872 6.5,33.063 6.25,33.709C6,34.355 5.271,35.294 4.479,35.689C3.967,35.944 4.021,36.959 3.917,37.23C3.813,37.501 2.832,37.471 3.167,38.105C3.542,38.813 3.778,39.886 4.875,40.251C4.982,40.287 5.06,40.289 5.139,40.293C5.66,40.851 6.358,41.678 6.495,42.02C6.528,42.103 6.552,42.171 6.573,42.232C6.717,42.65 6.832,42.848 7.563,43.433C7.865,43.674 7.941,44.162 8.016,44.634C8.099,45.167 8.186,45.717 8.654,45.979C9.185,46.276 9.748,46.107 10.077,45.953C10.418,46.126 10.999,46.401 11.34,46.454C11.603,46.495 12.011,46.51 12.425,46.51C13.009,46.51 13.604,46.481 13.809,46.457C14.42,46.386 14.731,46.181 15.614,44.962C16.212,44.137 17.973,43.899 18.601,43.877C18.877,43.868 19.093,43.636 19.083,43.36C19.073,43.082 18.838,42.852 18.567,42.875Z" style="fill:white;fill-rule:nonzero;"/>
        </g>
    </g>
</svg>
